<?xml version="1.0" encoding="UTF-8" standalone="no"?>
<!-- Created with Inkscape (http://www.inkscape.org/) -->

<svg
   xmlns:dc="http://purl.org/dc/elements/1.1/"
   xmlns:cc="http://creativecommons.org/ns#"
   xmlns:rdf="http://www.w3.org/1999/02/22-rdf-syntax-ns#"
   xmlns:svg="http://www.w3.org/2000/svg"
   xmlns="http://www.w3.org/2000/svg"
   xmlns:sodipodi="http://sodipodi.sourceforge.net/DTD/sodipodi-0.dtd"
   xmlns:inkscape="http://www.inkscape.org/namespaces/inkscape"
   sodipodi:docname="logo-1.svg"
   inkscape:version="0.48.4 r9939"
   version="1.1"
   id="svg2"
   height="1052.3622047"
   width="744.09448819">
  <sodipodi:namedview
     id="base"
     pagecolor="#ffffff"
     bordercolor="#666666"
     borderopacity="1.0"
     inkscape:pageopacity="0.0"
     inkscape:pageshadow="2"
     inkscape:zoom="0.24748737"
     inkscape:cx="219.87532"
     inkscape:cy="414.18421"
     inkscape:document-units="px"
     inkscape:current-layer="layer1"
     showgrid="false"
     inkscape:window-width="1920"
     inkscape:window-height="1031"
     inkscape:window-x="0"
     inkscape:window-y="0"
     inkscape:window-maximized="1" />
  <defs
     id="defs4" />
  <metadata
     id="metadata7">
    <rdf:RDF>
      <cc:Work
         rdf:about="">
        <dc:format>image/svg+xml</dc:format>
        <dc:type
           rdf:resource="http://purl.org/dc/dcmitype/StillImage" />
        <dc:title></dc:title>
      </cc:Work>
    </rdf:RDF>
  </metadata>
  <g
     inkscape:label="Layer 1"
     inkscape:groupmode="layer"
     id="layer1">
    <text
       xml:space="preserve"
       style="font-size:40px;font-style:normal;font-weight:bold;line-height:125%;letter-spacing:0px;word-spacing:0px;fill:#000000;fill-opacity:1;stroke:none;font-family:Ubuntu Mono;-inkscape-font-specification:Ubuntu Mono Bold;font-stretch:normal;font-variant:normal"
       x="-124.24876"
       y="371.51938"
       id="text2989"
       sodipodi:linespacing="125%"><tspan
         sodipodi:role="line"
         id="tspan2991"
         x="-124.24876"
         y="371.51938" /></text>
    <g
       id="g4584"
       transform="matrix(4.9720929,0,0,4.9720929,-1115.1092,-819.73729)">
      <path
         inkscape:connector-curvature="0"
         id="path4567"
         d="m 247.59623,172.2072 -0.79749,1.06484 -0.71857,0.97973 c -1.60329,-0.16292 -3.18569,0.0772 -4.64853,0.64345 -0.1828,-0.24409 -0.4155,-0.48689 -0.87173,-0.90332 l -1.11357,-1.00095 -0.77242,0.42332 -0.80458,0.44097 0.21659,1.38792 c 0.10537,0.7119 0.15452,1.083 0.31625,1.41701 -1.12498,0.95073 -2.06073,2.16234 -2.7403,3.55255 l -0.16712,-0.0758 -1.45848,0.0879 -1.4512,0.063 -0.20472,0.88644 -0.19745,0.86153 1.13229,0.84421 1.16448,0.82658 0.15672,0.0188 c -0.19615,1.56128 -0.0841,3.10602 0.3518,4.53634 -0.27356,0.18501 -0.51261,0.43034 -0.93551,0.88937 l -0.95422,1.04611 0.44096,0.8046 0.44097,0.8046 1.35574,-0.19897 c 0.56876,-0.0852 0.90737,-0.1702 1.18863,-0.27479 0.95749,1.33656 2.22369,2.45634 3.74238,3.20124 -0.0339,0.43193 0.0244,1.01872 0.0981,2.16435 0.0213,0.33164 0.0706,0.38724 0.88426,0.58257 l 0.91136,0.212 0.78712,-1.12192 c 0.28618,-0.40326 0.45806,-0.66117 0.58257,-0.88428 1.68311,0.19219 3.34825,-0.0741 4.87691,-0.68492 0.18131,0.24392 0.41324,0.48695 0.85408,0.87114 l 1.03575,0.89714 0.80459,-0.44097 0.82951,-0.43369 -0.24151,-1.3952 c -0.1095,-0.61446 -0.20392,-0.95714 -0.33497,-1.26027 1.137,-0.97112 2.08745,-2.20568 2.76212,-3.62727 l 0.11729,0.0612 1.42629,-0.0702 1.43357,-0.0951 0.27213,-0.83973 0.30436,-0.85735 -1.18939,-0.83385 -1.18212,-0.85876 -0.18163,-0.026 c 0.17446,-1.53619 0.0379,-3.06336 -0.39852,-4.46889 0.31604,-0.19453 0.58204,-0.47363 1.05388,-1.01702 l 0.9044,-1.06066 -0.41606,-0.79732 -0.44823,-0.77968 -1.45229,0.25187 c -0.5996,0.104 -0.95503,0.15559 -1.23846,0.26024 -0.92498,-1.25258 -2.12658,-2.29039 -3.55455,-3.01122 l -0.0786,-1.21246 -0.0993,-1.32665 -0.89681,-0.26182 -0.8968,-0.26181 z m -1.26625,7.57845 c 2.80627,0.81927 4.41756,3.75923 3.59829,6.56551 -0.81926,2.80628 -3.75924,4.41755 -6.56551,3.59828 -2.80627,-0.81926 -4.41755,-3.75923 -3.59829,-6.5655 0.81927,-2.80628 3.75924,-4.41755 6.56551,-3.59829 z"
         style="fill:#ffc500;fill-opacity:1;stroke:#000000;stroke-width:0;stroke-miterlimit:4;stroke-opacity:1;stroke-dasharray:none" />
      <text
         sodipodi:linespacing="125%"
         id="text4578"
         y="199.86221"
         x="253.28299"
         style="font-size:12.83457184px;font-style:italic;font-weight:bold;line-height:125%;letter-spacing:0px;word-spacing:0px;fill:#ffc500;fill-opacity:1;stroke:none;font-family:Sans;-inkscape-font-specification:Sans Bold Italic"
         xml:space="preserve"><tspan
           y="199.86221"
           x="253.28299"
           id="tspan4580"
           sodipodi:role="line">primer</tspan></text>
    </g>
    <g
       transform="matrix(4.9720929,0,0,4.9720929,-1117.9663,-638.30872)"
       id="g4589"
       style="fill:#0076ff">
      <path
         style="fill:#0076ff;fill-opacity:1;stroke:#000000;stroke-width:0;stroke-miterlimit:4;stroke-opacity:1;stroke-dasharray:none"
         d="m 247.59623,172.2072 -0.79749,1.06484 -0.71857,0.97973 c -1.60329,-0.16292 -3.18569,0.0772 -4.64853,0.64345 -0.1828,-0.24409 -0.4155,-0.48689 -0.87173,-0.90332 l -1.11357,-1.00095 -0.77242,0.42332 -0.80458,0.44097 0.21659,1.38792 c 0.10537,0.7119 0.15452,1.083 0.31625,1.41701 -1.12498,0.95073 -2.06073,2.16234 -2.7403,3.55255 l -0.16712,-0.0758 -1.45848,0.0879 -1.4512,0.063 -0.20472,0.88644 -0.19745,0.86153 1.13229,0.84421 1.16448,0.82658 0.15672,0.0188 c -0.19615,1.56128 -0.0841,3.10602 0.3518,4.53634 -0.27356,0.18501 -0.51261,0.43034 -0.93551,0.88937 l -0.95422,1.04611 0.44096,0.8046 0.44097,0.8046 1.35574,-0.19897 c 0.56876,-0.0852 0.90737,-0.1702 1.18863,-0.27479 0.95749,1.33656 2.22369,2.45634 3.74238,3.20124 -0.0339,0.43193 0.0244,1.01872 0.0981,2.16435 0.0213,0.33164 0.0706,0.38724 0.88426,0.58257 l 0.91136,0.212 0.78712,-1.12192 c 0.28618,-0.40326 0.45806,-0.66117 0.58257,-0.88428 1.68311,0.19219 3.34825,-0.0741 4.87691,-0.68492 0.18131,0.24392 0.41324,0.48695 0.85408,0.87114 l 1.03575,0.89714 0.80459,-0.44097 0.82951,-0.43369 -0.24151,-1.3952 c -0.1095,-0.61446 -0.20392,-0.95714 -0.33497,-1.26027 1.137,-0.97112 2.08745,-2.20568 2.76212,-3.62727 l 0.11729,0.0612 1.42629,-0.0702 1.43357,-0.0951 0.27213,-0.83973 0.30436,-0.85735 -1.18939,-0.83385 -1.18212,-0.85876 -0.18163,-0.026 c 0.17446,-1.53619 0.0379,-3.06336 -0.39852,-4.46889 0.31604,-0.19453 0.58204,-0.47363 1.05388,-1.01702 l 0.9044,-1.06066 -0.41606,-0.79732 -0.44823,-0.77968 -1.45229,0.25187 c -0.5996,0.104 -0.95503,0.15559 -1.23846,0.26024 -0.92498,-1.25258 -2.12658,-2.29039 -3.55455,-3.01122 l -0.0786,-1.21246 -0.0993,-1.32665 -0.89681,-0.26182 -0.8968,-0.26181 z m -1.26625,7.57845 c 2.80627,0.81927 4.41756,3.75923 3.59829,6.56551 -0.81926,2.80628 -3.75924,4.41755 -6.56551,3.59828 -2.80627,-0.81926 -4.41755,-3.75923 -3.59829,-6.5655 0.81927,-2.80628 3.75924,-4.41755 6.56551,-3.59829 z"
         id="path4591"
         inkscape:connector-curvature="0" />
      <text
         xml:space="preserve"
         style="font-size:12.83457184000000062px;font-style:italic;font-weight:bold;line-height:125%;letter-spacing:0px;word-spacing:0px;fill:#0076ff;fill-opacity:1;stroke:none;font-family:Sans;-inkscape-font-specification:Sans Bold Italic"
         x="253.28299"
         y="199.86221"
         id="text4593"
         sodipodi:linespacing="125%"><tspan
           sodipodi:role="line"
           id="tspan4595"
           x="253.28299"
           y="199.86221">primer</tspan></text>
    </g>
    <g
       style="fill:#3b3b3b"
       id="g4597"
       transform="matrix(4.9720929,0,0,4.9720929,-1116.5377,-444.02301)">
      <path
         inkscape:connector-curvature="0"
         id="path4599"
         d="m 247.59623,172.2072 -0.79749,1.06484 -0.71857,0.97973 c -1.60329,-0.16292 -3.18569,0.0772 -4.64853,0.64345 -0.1828,-0.24409 -0.4155,-0.48689 -0.87173,-0.90332 l -1.11357,-1.00095 -0.77242,0.42332 -0.80458,0.44097 0.21659,1.38792 c 0.10537,0.7119 0.15452,1.083 0.31625,1.41701 -1.12498,0.95073 -2.06073,2.16234 -2.7403,3.55255 l -0.16712,-0.0758 -1.45848,0.0879 -1.4512,0.063 -0.20472,0.88644 -0.19745,0.86153 1.13229,0.84421 1.16448,0.82658 0.15672,0.0188 c -0.19615,1.56128 -0.0841,3.10602 0.3518,4.53634 -0.27356,0.18501 -0.51261,0.43034 -0.93551,0.88937 l -0.95422,1.04611 0.44096,0.8046 0.44097,0.8046 1.35574,-0.19897 c 0.56876,-0.0852 0.90737,-0.1702 1.18863,-0.27479 0.95749,1.33656 2.22369,2.45634 3.74238,3.20124 -0.0339,0.43193 0.0244,1.01872 0.0981,2.16435 0.0213,0.33164 0.0706,0.38724 0.88426,0.58257 l 0.91136,0.212 0.78712,-1.12192 c 0.28618,-0.40326 0.45806,-0.66117 0.58257,-0.88428 1.68311,0.19219 3.34825,-0.0741 4.87691,-0.68492 0.18131,0.24392 0.41324,0.48695 0.85408,0.87114 l 1.03575,0.89714 0.80459,-0.44097 0.82951,-0.43369 -0.24151,-1.3952 c -0.1095,-0.61446 -0.20392,-0.95714 -0.33497,-1.26027 1.137,-0.97112 2.08745,-2.20568 2.76212,-3.62727 l 0.11729,0.0612 1.42629,-0.0702 1.43357,-0.0951 0.27213,-0.83973 0.30436,-0.85735 -1.18939,-0.83385 -1.18212,-0.85876 -0.18163,-0.026 c 0.17446,-1.53619 0.0379,-3.06336 -0.39852,-4.46889 0.31604,-0.19453 0.58204,-0.47363 1.05388,-1.01702 l 0.9044,-1.06066 -0.41606,-0.79732 -0.44823,-0.77968 -1.45229,0.25187 c -0.5996,0.104 -0.95503,0.15559 -1.23846,0.26024 -0.92498,-1.25258 -2.12658,-2.29039 -3.55455,-3.01122 l -0.0786,-1.21246 -0.0993,-1.32665 -0.89681,-0.26182 -0.8968,-0.26181 z m -1.26625,7.57845 c 2.80627,0.81927 4.41756,3.75923 3.59829,6.56551 -0.81926,2.80628 -3.75924,4.41755 -6.56551,3.59828 -2.80627,-0.81926 -4.41755,-3.75923 -3.59829,-6.5655 0.81927,-2.80628 3.75924,-4.41755 6.56551,-3.59829 z"
         style="fill:#3b3b3b;fill-opacity:1;stroke:#000000;stroke-width:0;stroke-miterlimit:4;stroke-opacity:1;stroke-dasharray:none" />
      <text
         sodipodi:linespacing="125%"
         id="text4601"
         y="199.86221"
         x="253.28299"
         style="font-size:12.83457184px;font-style:italic;font-weight:bold;line-height:125%;letter-spacing:0px;word-spacing:0px;fill:#3b3b3b;fill-opacity:1;stroke:none;font-family:Sans;-inkscape-font-specification:Sans Bold Italic"
         xml:space="preserve"><tspan
           y="199.86221"
           x="253.28299"
           id="tspan4603"
           sodipodi:role="line">primer</tspan></text>
    </g>
    <g
       id="g4677"
       transform="translate(-935.40126,-670.74129)">
      <g
         id="g4651">
        <path
           inkscape:connector-curvature="0"
           id="path4599-3"
           d="m 439.90137,735.77063 -1.7488,4.87977 -1.55252,4.47233 c -6.15729,1.23166 -11.77466,3.94024 -16.57284,7.7262 -0.96061,-0.69936 -2.10556,-1.33671 -4.282,-2.36432 l -5.29452,-2.4506 -2.39102,2.46206 -2.49055,2.56467 2.39796,4.92013 c 1.20866,2.53022 1.8172,3.85579 2.80245,4.91417 -3.09919,4.83034 -5.19458,10.41519 -6.1312,16.37139 l -0.70924,-0.0906 -5.33044,1.99964 -5.33188,1.89857 0.25405,3.53575 0.25255,3.43465 5.18451,1.84544 5.28417,1.7429 0.60517,-0.10967 c 1.05974,6.03895 3.24823,11.66292 6.51149,16.48947 -0.80656,1.00263 -1.41546,2.1903 -2.46397,4.38459 l -2.35393,4.98973 2.56465,2.49063 2.5647,2.49062 4.82048,-2.29545 c 2.02031,-0.96942 3.1838,-1.67421 4.11126,-2.38619 5.09811,3.87934 11.09727,6.59746 17.60682,7.63003 0.36901,1.64733 1.25894,3.76563 2.84699,7.94733 0.45958,1.21056 0.70692,1.36109 3.96087,1.15553 l 3.63689,-0.25552 1.64474,-5.08044 c 0.60332,-1.82982 0.94766,-2.98735 1.1555,-3.96094 6.4881,-1.21417 12.38358,-4.11509 17.37577,-8.1425 0.95486,0.70044 2.09721,1.33952 4.17937,2.26473 l 4.88569,2.15325 2.49059,-2.56468 2.59174,-2.56614 -2.49912,-4.91866 c -1.11231,-2.16263 -1.85684,-3.33047 -2.69243,-4.30903 3.12056,-4.92005 5.24438,-10.60722 6.12677,-16.67467 l 0.50694,0.0934 5.23087,-1.89682 5.22942,-1.9979 0.0505,-3.43909 0.15035,-3.54166 -5.38526,-1.74141 -5.38676,-1.84249 -0.70618,0.11144 c -1.11175,-5.92065 -3.37136,-11.4511 -6.60814,-16.18473 0.95385,-1.08679 1.62439,-2.43113 2.75841,-4.99567 l 2.15172,-4.98678 -2.46358,-2.49209 -2.56315,-2.38949 -5.11937,2.60315 c -2.1136,1.07479 -3.37804,1.67445 -4.3135,2.38914 -4.88075,-3.60388 -10.54535,-6.09081 -16.68948,-7.13776 l -1.68292,-4.42497 -1.89093,-4.82644 -3.63985,0.0533 -3.63977,0.0534 z m 3.97417,29.67326 c 11.38964,-0.16683 20.76091,8.93374 20.92776,20.32341 0.16688,11.38967 -8.9338,20.76089 -20.32344,20.92772 -11.38964,0.16687 -20.76088,-8.93375 -20.92775,-20.32338 -0.16684,-11.38967 8.9338,-20.76089 20.32343,-20.92775 z"
           style="fill:#3b3b3b;fill-opacity:1;stroke:#000000;stroke-width:0;stroke-miterlimit:4;stroke-opacity:1;stroke-dasharray:none" />
        <path
           style="fill:#3b3b3b;fill-opacity:1;stroke:#000000;stroke-width:0;stroke-miterlimit:4;stroke-opacity:1;stroke-dasharray:none"
           d="m 493.79046,637.9738 -8.25,11 -7.40625,10.09375 c -16.55454,-1.6822 -32.89567,0.80951 -48,6.65625 -1.88748,-2.52032 -4.28926,-5.04398 -9,-9.34375 l -11.5,-10.3125 -7.96875,4.375 -8.3125,4.53125 2.21875,14.34375 c 1.08799,7.35061 1.61132,11.17623 3.28125,14.625 -11.61583,9.81663 -21.26444,22.33309 -28.28125,36.6875 l -1.75,-0.78125 -15.0625,0.90625 -14.96875,0.65625 -2.125,9.15625 -2.03125,8.875 11.6875,8.71875 12.03125,8.53125 1.625,0.21875 c -2.02532,16.12077 -0.87581,32.04395 3.625,46.8125 -2.8246,1.9103 -5.28965,4.44785 -9.65625,9.1875 l -9.84375,10.8125 4.53125,8.3125 4.5625,8.31248 14,-2.0625 c 5.87265,-0.8797 9.37714,-1.7638 12.28125,-2.8437 9.88642,13.8004 22.94401,25.3711 38.625,33.0625 -0.35002,4.4598 0.27025,10.5147 1.03125,22.3437 0.21991,3.4243 0.72366,3.9832 9.125,6 l 9.40625,2.1875 8.125,-11.5625 c 2.95491,-4.1638 4.7144,-6.8213 6,-9.125 17.37871,1.9845 34.59105,-0.7868 50.375,-7.0937 1.87209,2.5186 4.26067,5.0331 8.8125,9 l 10.6875,9.2812 8.3125,-4.5625 8.5625,-4.4687 -2.5,-14.4063 c -1.13063,-6.3445 -2.08437,-9.9013 -3.4375,-13.0312 11.7399,-10.0272 21.53379,-22.7591 28.5,-37.43753 l 1.21875,0.625 14.71875,-0.71875 14.8125,-1 2.8125,-8.65625 3.15625,-8.84375 -12.28125,-8.625 -12.21875,-8.875 -1.875,-0.25 c 1.80136,-15.8617 0.38119,-31.64366 -4.125,-46.15625 3.26323,-2.0086 6.00309,-4.88932 10.875,-10.5 l 9.34375,-10.9375 -4.28125,-8.25 -4.625,-8.03125 -15,2.59375 c -6.19109,1.07384 -9.85474,1.60695 -12.78125,2.6875 -9.55073,-12.93332 -21.97446,-23.65093 -36.71875,-31.09375 l -0.8125,-12.53125 -1.03125,-13.6875 -9.25,-2.71875 -9.25,-2.6875 z m -27.5625,45.6875 c 46.86291,0 84.84375,37.98084 84.84375,84.84375 0,46.86291 -37.98084,84.84373 -84.84375,84.84373 -46.86291,0 -84.84375,-37.98082 -84.84375,-84.84373 0,-46.86291 37.98084,-84.84375 84.84375,-84.84375 z"
           id="path4644"
           inkscape:connector-curvature="0" />
        <path
           style="fill:#3b3b3b;fill-opacity:1;stroke:#000000;stroke-width:0;stroke-miterlimit:4;stroke-opacity:1;stroke-dasharray:none"
           d="m 491.51039,701.30597 -0.24608,3.32308 -0.19439,3.03699 c -3.6031,1.81951 -6.6183,4.46133 -8.94116,7.63003 -0.71509,-0.26843 -1.53375,-0.46681 -3.05837,-0.72997 l -3.70044,-0.60968 -1.05878,1.93551 -1.10283,2.01615 2.32975,2.63656 c 1.18292,1.36008 1.78735,2.07686 2.57932,2.56347 -1.09113,3.52416 -1.43094,7.34351 -0.98918,11.19408 l -0.4549,0.0656 -2.95909,2.1534 -2.97733,2.09104 0.76407,2.1468 0.74578,2.08443 3.52845,0.25367 3.57259,0.17302 0.35609,-0.17178 c 1.69271,3.55929 4.01346,6.66783 6.86322,9.09794 -0.32763,0.75951 -0.50106,1.59976 -0.77409,3.13903 l -0.6021,3.49503 2.01615,1.10289 2.01619,1.10287 2.59241,-2.24915 c 1.08524,-0.94721 1.6851,-1.58348 2.13749,-2.18368 3.8239,1.52848 8.00677,2.18299 12.2166,1.70572 0.51126,0.9572 1.42604,2.11679 3.12735,4.43487 0.49243,0.67107 0.67148,0.72189 2.65203,0.0362 l 2.20921,-0.78234 0.14718,-3.42953 c 0.0598,-1.23709 0.0745,-2.01327 0.0362,-2.65207 3.81105,-1.86543 6.96553,-4.67413 9.36715,-8.02569 0.71172,0.27007 1.52906,0.46997 2.97771,0.68588 l 3.39613,0.49562 1.10286,-2.01617 1.16528,-2.03441 -2.39217,-2.61831 c -1.06015,-1.14888 -1.72178,-1.74461 -2.40733,-2.20746 1.08898,-3.58339 1.42884,-7.47101 0.9344,-11.38119 l 0.33006,-0.0292 2.91506,-2.07261 2.8968,-2.13499 -0.55877,-2.13919 -0.51461,-2.21984 -3.63496,-0.15477 -3.65324,-0.21713 -0.41836,0.19017 c -1.70463,-3.47707 -4.05339,-6.51546 -6.8708,-8.89257 0.40442,-0.83692 0.58916,-1.78479 0.85165,-3.5681 l 0.47733,-3.45852 -1.9538,-1.12113 -1.99786,-1.04048 -2.72479,2.49106 c -1.12495,1.0285 -1.80538,1.61694 -2.26226,2.2202 -3.642,-1.39513 -7.57793,-1.96383 -11.56385,-1.55817 l -1.80183,-2.4525 -1.99958,-2.66551 -2.24573,0.6576 -2.24567,0.65759 z m 7.5535,17.70064 c 7.02724,-2.05765 14.39426,1.97216 16.45193,8.99943 2.05768,7.02725 -1.97221,14.39426 -8.99946,16.4519 -7.02723,2.05767 -14.39424,-1.97218 -16.45191,-8.99942 -2.05766,-7.02725 1.9722,-14.39425 8.99944,-16.45191 z"
           id="path4649"
           inkscape:connector-curvature="0" />
      </g>
      <text
         xml:space="preserve"
         style="font-size:63.81468201px;font-style:italic;font-weight:bold;line-height:125%;letter-spacing:0px;word-spacing:0px;fill:#3b3b3b;fill-opacity:1;stroke:none;font-family:Sans;-inkscape-font-specification:Sans Bold Italic"
         x="561.27869"
         y="886.11957"
         id="text4601-0"
         sodipodi:linespacing="125%"><tspan
           sodipodi:role="line"
           id="tspan4603-4"
           x="561.27869"
           y="886.11957">primer</tspan></text>
    </g>
    <g
       transform="translate(-935.40126,-404.74129)"
       id="g4685"
       style="fill:#ffc500">
      <g
         id="g4687"
         style="fill:#ffc500">
        <path
           style="fill:#ffc500;fill-opacity:1;stroke:#000000;stroke-width:0;stroke-miterlimit:4;stroke-opacity:1;stroke-dasharray:none"
           d="m 439.90137,735.77063 -1.7488,4.87977 -1.55252,4.47233 c -6.15729,1.23166 -11.77466,3.94024 -16.57284,7.7262 -0.96061,-0.69936 -2.10556,-1.33671 -4.282,-2.36432 l -5.29452,-2.4506 -2.39102,2.46206 -2.49055,2.56467 2.39796,4.92013 c 1.20866,2.53022 1.8172,3.85579 2.80245,4.91417 -3.09919,4.83034 -5.19458,10.41519 -6.1312,16.37139 l -0.70924,-0.0906 -5.33044,1.99964 -5.33188,1.89857 0.25405,3.53575 0.25255,3.43465 5.18451,1.84544 5.28417,1.7429 0.60517,-0.10967 c 1.05974,6.03895 3.24823,11.66292 6.51149,16.48947 -0.80656,1.00263 -1.41546,2.1903 -2.46397,4.38459 l -2.35393,4.98973 2.56465,2.49063 2.5647,2.49062 4.82048,-2.29545 c 2.02031,-0.96942 3.1838,-1.67421 4.11126,-2.38619 5.09811,3.87934 11.09727,6.59746 17.60682,7.63003 0.36901,1.64733 1.25894,3.76563 2.84699,7.94733 0.45958,1.21056 0.70692,1.36109 3.96087,1.15553 l 3.63689,-0.25552 1.64474,-5.08044 c 0.60332,-1.82982 0.94766,-2.98735 1.1555,-3.96094 6.4881,-1.21417 12.38358,-4.11509 17.37577,-8.1425 0.95486,0.70044 2.09721,1.33952 4.17937,2.26473 l 4.88569,2.15325 2.49059,-2.56468 2.59174,-2.56614 -2.49912,-4.91866 c -1.11231,-2.16263 -1.85684,-3.33047 -2.69243,-4.30903 3.12056,-4.92005 5.24438,-10.60722 6.12677,-16.67467 l 0.50694,0.0934 5.23087,-1.89682 5.22942,-1.9979 0.0505,-3.43909 0.15035,-3.54166 -5.38526,-1.74141 -5.38676,-1.84249 -0.70618,0.11144 c -1.11175,-5.92065 -3.37136,-11.4511 -6.60814,-16.18473 0.95385,-1.08679 1.62439,-2.43113 2.75841,-4.99567 l 2.15172,-4.98678 -2.46358,-2.49209 -2.56315,-2.38949 -5.11937,2.60315 c -2.1136,1.07479 -3.37804,1.67445 -4.3135,2.38914 -4.88075,-3.60388 -10.54535,-6.09081 -16.68948,-7.13776 l -1.68292,-4.42497 -1.89093,-4.82644 -3.63985,0.0533 -3.63977,0.0534 z m 3.97417,29.67326 c 11.38964,-0.16683 20.76091,8.93374 20.92776,20.32341 0.16688,11.38967 -8.9338,20.76089 -20.32344,20.92772 -11.38964,0.16687 -20.76088,-8.93375 -20.92775,-20.32338 -0.16684,-11.38967 8.9338,-20.76089 20.32343,-20.92775 z"
           id="path4689"
           inkscape:connector-curvature="0" />
        <path
           inkscape:connector-curvature="0"
           id="path4691"
           d="m 493.79046,637.9738 -8.25,11 -7.40625,10.09375 c -16.55454,-1.6822 -32.89567,0.80951 -48,6.65625 -1.88748,-2.52032 -4.28926,-5.04398 -9,-9.34375 l -11.5,-10.3125 -7.96875,4.375 -8.3125,4.53125 2.21875,14.34375 c 1.08799,7.35061 1.61132,11.17623 3.28125,14.625 -11.61583,9.81663 -21.26444,22.33309 -28.28125,36.6875 l -1.75,-0.78125 -15.0625,0.90625 -14.96875,0.65625 -2.125,9.15625 -2.03125,8.875 11.6875,8.71875 12.03125,8.53125 1.625,0.21875 c -2.02532,16.12077 -0.87581,32.04395 3.625,46.8125 -2.8246,1.9103 -5.28965,4.44785 -9.65625,9.1875 l -9.84375,10.8125 4.53125,8.3125 4.5625,8.31248 14,-2.0625 c 5.87265,-0.8797 9.37714,-1.7638 12.28125,-2.8437 9.88642,13.8004 22.94401,25.3711 38.625,33.0625 -0.35002,4.4598 0.27025,10.5147 1.03125,22.3437 0.21991,3.4243 0.72366,3.9832 9.125,6 l 9.40625,2.1875 8.125,-11.5625 c 2.95491,-4.1638 4.7144,-6.8213 6,-9.125 17.37871,1.9845 34.59105,-0.7868 50.375,-7.0937 1.87209,2.5186 4.26067,5.0331 8.8125,9 l 10.6875,9.2812 8.3125,-4.5625 8.5625,-4.4687 -2.5,-14.4063 c -1.13063,-6.3445 -2.08437,-9.9013 -3.4375,-13.0312 11.7399,-10.0272 21.53379,-22.7591 28.5,-37.43753 l 1.21875,0.625 14.71875,-0.71875 14.8125,-1 2.8125,-8.65625 3.15625,-8.84375 -12.28125,-8.625 -12.21875,-8.875 -1.875,-0.25 c 1.80136,-15.8617 0.38119,-31.64366 -4.125,-46.15625 3.26323,-2.0086 6.00309,-4.88932 10.875,-10.5 l 9.34375,-10.9375 -4.28125,-8.25 -4.625,-8.03125 -15,2.59375 c -6.19109,1.07384 -9.85474,1.60695 -12.78125,2.6875 -9.55073,-12.93332 -21.97446,-23.65093 -36.71875,-31.09375 l -0.8125,-12.53125 -1.03125,-13.6875 -9.25,-2.71875 -9.25,-2.6875 z m -27.5625,45.6875 c 46.86291,0 84.84375,37.98084 84.84375,84.84375 0,46.86291 -37.98084,84.84373 -84.84375,84.84373 -46.86291,0 -84.84375,-37.98082 -84.84375,-84.84373 0,-46.86291 37.98084,-84.84375 84.84375,-84.84375 z"
           style="fill:#ffc500;fill-opacity:1;stroke:#000000;stroke-width:0;stroke-miterlimit:4;stroke-opacity:1;stroke-dasharray:none" />
        <path
           inkscape:connector-curvature="0"
           id="path4693"
           d="m 491.51039,701.30597 -0.24608,3.32308 -0.19439,3.03699 c -3.6031,1.81951 -6.6183,4.46133 -8.94116,7.63003 -0.71509,-0.26843 -1.53375,-0.46681 -3.05837,-0.72997 l -3.70044,-0.60968 -1.05878,1.93551 -1.10283,2.01615 2.32975,2.63656 c 1.18292,1.36008 1.78735,2.07686 2.57932,2.56347 -1.09113,3.52416 -1.43094,7.34351 -0.98918,11.19408 l -0.4549,0.0656 -2.95909,2.1534 -2.97733,2.09104 0.76407,2.1468 0.74578,2.08443 3.52845,0.25367 3.57259,0.17302 0.35609,-0.17178 c 1.69271,3.55929 4.01346,6.66783 6.86322,9.09794 -0.32763,0.75951 -0.50106,1.59976 -0.77409,3.13903 l -0.6021,3.49503 2.01615,1.10289 2.01619,1.10287 2.59241,-2.24915 c 1.08524,-0.94721 1.6851,-1.58348 2.13749,-2.18368 3.8239,1.52848 8.00677,2.18299 12.2166,1.70572 0.51126,0.9572 1.42604,2.11679 3.12735,4.43487 0.49243,0.67107 0.67148,0.72189 2.65203,0.0362 l 2.20921,-0.78234 0.14718,-3.42953 c 0.0598,-1.23709 0.0745,-2.01327 0.0362,-2.65207 3.81105,-1.86543 6.96553,-4.67413 9.36715,-8.02569 0.71172,0.27007 1.52906,0.46997 2.97771,0.68588 l 3.39613,0.49562 1.10286,-2.01617 1.16528,-2.03441 -2.39217,-2.61831 c -1.06015,-1.14888 -1.72178,-1.74461 -2.40733,-2.20746 1.08898,-3.58339 1.42884,-7.47101 0.9344,-11.38119 l 0.33006,-0.0292 2.91506,-2.07261 2.8968,-2.13499 -0.55877,-2.13919 -0.51461,-2.21984 -3.63496,-0.15477 -3.65324,-0.21713 -0.41836,0.19017 c -1.70463,-3.47707 -4.05339,-6.51546 -6.8708,-8.89257 0.40442,-0.83692 0.58916,-1.78479 0.85165,-3.5681 l 0.47733,-3.45852 -1.9538,-1.12113 -1.99786,-1.04048 -2.72479,2.49106 c -1.12495,1.0285 -1.80538,1.61694 -2.26226,2.2202 -3.642,-1.39513 -7.57793,-1.96383 -11.56385,-1.55817 l -1.80183,-2.4525 -1.99958,-2.66551 -2.24573,0.6576 -2.24567,0.65759 z m 7.5535,17.70064 c 7.02724,-2.05765 14.39426,1.97216 16.45193,8.99943 2.05768,7.02725 -1.97221,14.39426 -8.99946,16.4519 -7.02723,2.05767 -14.39424,-1.97218 -16.45191,-8.99942 -2.05766,-7.02725 1.9722,-14.39425 8.99944,-16.45191 z"
           style="fill:#ffc500;fill-opacity:1;stroke:#000000;stroke-width:0;stroke-miterlimit:4;stroke-opacity:1;stroke-dasharray:none" />
      </g>
      <text
         sodipodi:linespacing="125%"
         id="text4695"
         y="886.11957"
         x="561.27869"
         style="font-size:63.81468201px;font-style:italic;font-weight:bold;line-height:125%;letter-spacing:0px;word-spacing:0px;fill:#ffc500;fill-opacity:1;stroke:none;font-family:Sans;-inkscape-font-specification:Sans Bold Italic"
         xml:space="preserve"><tspan
           y="886.11957"
           x="561.27869"
           id="tspan4697"
           sodipodi:role="line">primer</tspan></text>
    </g>
    <g
       style="fill:#0076ff"
       id="g4699"
       transform="translate(-951.5637,-138.06102)">
      <g
         style="fill:#0076ff"
         id="g4701">
        <path
           inkscape:connector-curvature="0"
           id="path4703"
           d="m 439.90137,735.77063 -1.7488,4.87977 -1.55252,4.47233 c -6.15729,1.23166 -11.77466,3.94024 -16.57284,7.7262 -0.96061,-0.69936 -2.10556,-1.33671 -4.282,-2.36432 l -5.29452,-2.4506 -2.39102,2.46206 -2.49055,2.56467 2.39796,4.92013 c 1.20866,2.53022 1.8172,3.85579 2.80245,4.91417 -3.09919,4.83034 -5.19458,10.41519 -6.1312,16.37139 l -0.70924,-0.0906 -5.33044,1.99964 -5.33188,1.89857 0.25405,3.53575 0.25255,3.43465 5.18451,1.84544 5.28417,1.7429 0.60517,-0.10967 c 1.05974,6.03895 3.24823,11.66292 6.51149,16.48947 -0.80656,1.00263 -1.41546,2.1903 -2.46397,4.38459 l -2.35393,4.98973 2.56465,2.49063 2.5647,2.49062 4.82048,-2.29545 c 2.02031,-0.96942 3.1838,-1.67421 4.11126,-2.38619 5.09811,3.87934 11.09727,6.59746 17.60682,7.63003 0.36901,1.64733 1.25894,3.76563 2.84699,7.94733 0.45958,1.21056 0.70692,1.36109 3.96087,1.15553 l 3.63689,-0.25552 1.64474,-5.08044 c 0.60332,-1.82982 0.94766,-2.98735 1.1555,-3.96094 6.4881,-1.21417 12.38358,-4.11509 17.37577,-8.1425 0.95486,0.70044 2.09721,1.33952 4.17937,2.26473 l 4.88569,2.15325 2.49059,-2.56468 2.59174,-2.56614 -2.49912,-4.91866 c -1.11231,-2.16263 -1.85684,-3.33047 -2.69243,-4.30903 3.12056,-4.92005 5.24438,-10.60722 6.12677,-16.67467 l 0.50694,0.0934 5.23087,-1.89682 5.22942,-1.9979 0.0505,-3.43909 0.15035,-3.54166 -5.38526,-1.74141 -5.38676,-1.84249 -0.70618,0.11144 c -1.11175,-5.92065 -3.37136,-11.4511 -6.60814,-16.18473 0.95385,-1.08679 1.62439,-2.43113 2.75841,-4.99567 l 2.15172,-4.98678 -2.46358,-2.49209 -2.56315,-2.38949 -5.11937,2.60315 c -2.1136,1.07479 -3.37804,1.67445 -4.3135,2.38914 -4.88075,-3.60388 -10.54535,-6.09081 -16.68948,-7.13776 l -1.68292,-4.42497 -1.89093,-4.82644 -3.63985,0.0533 -3.63977,0.0534 z m 3.97417,29.67326 c 11.38964,-0.16683 20.76091,8.93374 20.92776,20.32341 0.16688,11.38967 -8.9338,20.76089 -20.32344,20.92772 -11.38964,0.16687 -20.76088,-8.93375 -20.92775,-20.32338 -0.16684,-11.38967 8.9338,-20.76089 20.32343,-20.92775 z"
           style="fill:#0076ff;fill-opacity:1;stroke:#000000;stroke-width:0;stroke-miterlimit:4;stroke-opacity:1;stroke-dasharray:none" />
        <path
           style="fill:#0076ff;fill-opacity:1;stroke:#000000;stroke-width:0;stroke-miterlimit:4;stroke-opacity:1;stroke-dasharray:none"
           d="m 493.79046,637.9738 -8.25,11 -7.40625,10.09375 c -16.55454,-1.6822 -32.89567,0.80951 -48,6.65625 -1.88748,-2.52032 -4.28926,-5.04398 -9,-9.34375 l -11.5,-10.3125 -7.96875,4.375 -8.3125,4.53125 2.21875,14.34375 c 1.08799,7.35061 1.61132,11.17623 3.28125,14.625 -11.61583,9.81663 -21.26444,22.33309 -28.28125,36.6875 l -1.75,-0.78125 -15.0625,0.90625 -14.96875,0.65625 -2.125,9.15625 -2.03125,8.875 11.6875,8.71875 12.03125,8.53125 1.625,0.21875 c -2.02532,16.12077 -0.87581,32.04395 3.625,46.8125 -2.8246,1.9103 -5.28965,4.44785 -9.65625,9.1875 l -9.84375,10.8125 4.53125,8.3125 4.5625,8.31248 14,-2.0625 c 5.87265,-0.8797 9.37714,-1.7638 12.28125,-2.8437 9.88642,13.8004 22.94401,25.3711 38.625,33.0625 -0.35002,4.4598 0.27025,10.5147 1.03125,22.3437 0.21991,3.4243 0.72366,3.9832 9.125,6 l 9.40625,2.1875 8.125,-11.5625 c 2.95491,-4.1638 4.7144,-6.8213 6,-9.125 17.37871,1.9845 34.59105,-0.7868 50.375,-7.0937 1.87209,2.5186 4.26067,5.0331 8.8125,9 l 10.6875,9.2812 8.3125,-4.5625 8.5625,-4.4687 -2.5,-14.4063 c -1.13063,-6.3445 -2.08437,-9.9013 -3.4375,-13.0312 11.7399,-10.0272 21.53379,-22.7591 28.5,-37.43753 l 1.21875,0.625 14.71875,-0.71875 14.8125,-1 2.8125,-8.65625 3.15625,-8.84375 -12.28125,-8.625 -12.21875,-8.875 -1.875,-0.25 c 1.80136,-15.8617 0.38119,-31.64366 -4.125,-46.15625 3.26323,-2.0086 6.00309,-4.88932 10.875,-10.5 l 9.34375,-10.9375 -4.28125,-8.25 -4.625,-8.03125 -15,2.59375 c -6.19109,1.07384 -9.85474,1.60695 -12.78125,2.6875 -9.55073,-12.93332 -21.97446,-23.65093 -36.71875,-31.09375 l -0.8125,-12.53125 -1.03125,-13.6875 -9.25,-2.71875 -9.25,-2.6875 z m -27.5625,45.6875 c 46.86291,0 84.84375,37.98084 84.84375,84.84375 0,46.86291 -37.98084,84.84373 -84.84375,84.84373 -46.86291,0 -84.84375,-37.98082 -84.84375,-84.84373 0,-46.86291 37.98084,-84.84375 84.84375,-84.84375 z"
           id="path4705"
           inkscape:connector-curvature="0" />
        <path
           style="fill:#0076ff;fill-opacity:1;stroke:#000000;stroke-width:0;stroke-miterlimit:4;stroke-opacity:1;stroke-dasharray:none"
           d="m 491.51039,701.30597 -0.24608,3.32308 -0.19439,3.03699 c -3.6031,1.81951 -6.6183,4.46133 -8.94116,7.63003 -0.71509,-0.26843 -1.53375,-0.46681 -3.05837,-0.72997 l -3.70044,-0.60968 -1.05878,1.93551 -1.10283,2.01615 2.32975,2.63656 c 1.18292,1.36008 1.78735,2.07686 2.57932,2.56347 -1.09113,3.52416 -1.43094,7.34351 -0.98918,11.19408 l -0.4549,0.0656 -2.95909,2.1534 -2.97733,2.09104 0.76407,2.1468 0.74578,2.08443 3.52845,0.25367 3.57259,0.17302 0.35609,-0.17178 c 1.69271,3.55929 4.01346,6.66783 6.86322,9.09794 -0.32763,0.75951 -0.50106,1.59976 -0.77409,3.13903 l -0.6021,3.49503 2.01615,1.10289 2.01619,1.10287 2.59241,-2.24915 c 1.08524,-0.94721 1.6851,-1.58348 2.13749,-2.18368 3.8239,1.52848 8.00677,2.18299 12.2166,1.70572 0.51126,0.9572 1.42604,2.11679 3.12735,4.43487 0.49243,0.67107 0.67148,0.72189 2.65203,0.0362 l 2.20921,-0.78234 0.14718,-3.42953 c 0.0598,-1.23709 0.0745,-2.01327 0.0362,-2.65207 3.81105,-1.86543 6.96553,-4.67413 9.36715,-8.02569 0.71172,0.27007 1.52906,0.46997 2.97771,0.68588 l 3.39613,0.49562 1.10286,-2.01617 1.16528,-2.03441 -2.39217,-2.61831 c -1.06015,-1.14888 -1.72178,-1.74461 -2.40733,-2.20746 1.08898,-3.58339 1.42884,-7.47101 0.9344,-11.38119 l 0.33006,-0.0292 2.91506,-2.07261 2.8968,-2.13499 -0.55877,-2.13919 -0.51461,-2.21984 -3.63496,-0.15477 -3.65324,-0.21713 -0.41836,0.19017 c -1.70463,-3.47707 -4.05339,-6.51546 -6.8708,-8.89257 0.40442,-0.83692 0.58916,-1.78479 0.85165,-3.5681 l 0.47733,-3.45852 -1.9538,-1.12113 -1.99786,-1.04048 -2.72479,2.49106 c -1.12495,1.0285 -1.80538,1.61694 -2.26226,2.2202 -3.642,-1.39513 -7.57793,-1.96383 -11.56385,-1.55817 l -1.80183,-2.4525 -1.99958,-2.66551 -2.24573,0.6576 -2.24567,0.65759 z m 7.5535,17.70064 c 7.02724,-2.05765 14.39426,1.97216 16.45193,8.99943 2.05768,7.02725 -1.97221,14.39426 -8.99946,16.4519 -7.02723,2.05767 -14.39424,-1.97218 -16.45191,-8.99942 -2.05766,-7.02725 1.9722,-14.39425 8.99944,-16.45191 z"
           id="path4707"
           inkscape:connector-curvature="0" />
      </g>
      <text
         xml:space="preserve"
         style="font-size:63.81468200999999851px;font-style:italic;font-weight:bold;line-height:125%;letter-spacing:0px;word-spacing:0px;fill:#0076ff;fill-opacity:1;stroke:none;font-family:Sans;-inkscape-font-specification:Sans Bold Italic"
         x="561.27869"
         y="886.11957"
         id="text4709"
         sodipodi:linespacing="125%"><tspan
           sodipodi:role="line"
           id="tspan4711"
           x="561.27869"
           y="886.11957">primer</tspan></text>
    </g>
    <g
       transform="translate(-947.52309,145.46198)"
       id="g4074"
       style="fill:#f2f2f2">
      <g
         id="g4076"
         style="fill:#f2f2f2">
        <path
           style="fill:#f2f2f2;fill-opacity:1;stroke:#000000;stroke-width:0;stroke-miterlimit:4;stroke-opacity:1;stroke-dasharray:none"
           d="m 439.90137,735.77063 -1.7488,4.87977 -1.55252,4.47233 c -6.15729,1.23166 -11.77466,3.94024 -16.57284,7.7262 -0.96061,-0.69936 -2.10556,-1.33671 -4.282,-2.36432 l -5.29452,-2.4506 -2.39102,2.46206 -2.49055,2.56467 2.39796,4.92013 c 1.20866,2.53022 1.8172,3.85579 2.80245,4.91417 -3.09919,4.83034 -5.19458,10.41519 -6.1312,16.37139 l -0.70924,-0.0906 -5.33044,1.99964 -5.33188,1.89857 0.25405,3.53575 0.25255,3.43465 5.18451,1.84544 5.28417,1.7429 0.60517,-0.10967 c 1.05974,6.03895 3.24823,11.66292 6.51149,16.48947 -0.80656,1.00263 -1.41546,2.1903 -2.46397,4.38459 l -2.35393,4.98973 2.56465,2.49063 2.5647,2.49062 4.82048,-2.29545 c 2.02031,-0.96942 3.1838,-1.67421 4.11126,-2.38619 5.09811,3.87934 11.09727,6.59746 17.60682,7.63003 0.36901,1.64733 1.25894,3.76563 2.84699,7.94733 0.45958,1.21056 0.70692,1.36109 3.96087,1.15553 l 3.63689,-0.25552 1.64474,-5.08044 c 0.60332,-1.82982 0.94766,-2.98735 1.1555,-3.96094 6.4881,-1.21417 12.38358,-4.11509 17.37577,-8.1425 0.95486,0.70044 2.09721,1.33952 4.17937,2.26473 l 4.88569,2.15325 2.49059,-2.56468 2.59174,-2.56614 -2.49912,-4.91866 c -1.11231,-2.16263 -1.85684,-3.33047 -2.69243,-4.30903 3.12056,-4.92005 5.24438,-10.60722 6.12677,-16.67467 l 0.50694,0.0934 5.23087,-1.89682 5.22942,-1.9979 0.0505,-3.43909 0.15035,-3.54166 -5.38526,-1.74141 -5.38676,-1.84249 -0.70618,0.11144 c -1.11175,-5.92065 -3.37136,-11.4511 -6.60814,-16.18473 0.95385,-1.08679 1.62439,-2.43113 2.75841,-4.99567 l 2.15172,-4.98678 -2.46358,-2.49209 -2.56315,-2.38949 -5.11937,2.60315 c -2.1136,1.07479 -3.37804,1.67445 -4.3135,2.38914 -4.88075,-3.60388 -10.54535,-6.09081 -16.68948,-7.13776 l -1.68292,-4.42497 -1.89093,-4.82644 -3.63985,0.0533 -3.63977,0.0534 z m 3.97417,29.67326 c 11.38964,-0.16683 20.76091,8.93374 20.92776,20.32341 0.16688,11.38967 -8.9338,20.76089 -20.32344,20.92772 -11.38964,0.16687 -20.76088,-8.93375 -20.92775,-20.32338 -0.16684,-11.38967 8.9338,-20.76089 20.32343,-20.92775 z"
           id="path4078"
           inkscape:connector-curvature="0" />
        <path
           inkscape:connector-curvature="0"
           id="path4080"
           d="m 493.79046,637.9738 -8.25,11 -7.40625,10.09375 c -16.55454,-1.6822 -32.89567,0.80951 -48,6.65625 -1.88748,-2.52032 -4.28926,-5.04398 -9,-9.34375 l -11.5,-10.3125 -7.96875,4.375 -8.3125,4.53125 2.21875,14.34375 c 1.08799,7.35061 1.61132,11.17623 3.28125,14.625 -11.61583,9.81663 -21.26444,22.33309 -28.28125,36.6875 l -1.75,-0.78125 -15.0625,0.90625 -14.96875,0.65625 -2.125,9.15625 -2.03125,8.875 11.6875,8.71875 12.03125,8.53125 1.625,0.21875 c -2.02532,16.12077 -0.87581,32.04395 3.625,46.8125 -2.8246,1.9103 -5.28965,4.44785 -9.65625,9.1875 l -9.84375,10.8125 4.53125,8.3125 4.5625,8.31248 14,-2.0625 c 5.87265,-0.8797 9.37714,-1.7638 12.28125,-2.8437 9.88642,13.8004 22.94401,25.3711 38.625,33.0625 -0.35002,4.4598 0.27025,10.5147 1.03125,22.3437 0.21991,3.4243 0.72366,3.9832 9.125,6 l 9.40625,2.1875 8.125,-11.5625 c 2.95491,-4.1638 4.7144,-6.8213 6,-9.125 17.37871,1.9845 34.59105,-0.7868 50.375,-7.0937 1.87209,2.5186 4.26067,5.0331 8.8125,9 l 10.6875,9.2812 8.3125,-4.5625 8.5625,-4.4687 -2.5,-14.4063 c -1.13063,-6.3445 -2.08437,-9.9013 -3.4375,-13.0312 11.7399,-10.0272 21.53379,-22.7591 28.5,-37.43753 l 1.21875,0.625 14.71875,-0.71875 14.8125,-1 2.8125,-8.65625 3.15625,-8.84375 -12.28125,-8.625 -12.21875,-8.875 -1.875,-0.25 c 1.80136,-15.8617 0.38119,-31.64366 -4.125,-46.15625 3.26323,-2.0086 6.00309,-4.88932 10.875,-10.5 l 9.34375,-10.9375 -4.28125,-8.25 -4.625,-8.03125 -15,2.59375 c -6.19109,1.07384 -9.85474,1.60695 -12.78125,2.6875 -9.55073,-12.93332 -21.97446,-23.65093 -36.71875,-31.09375 l -0.8125,-12.53125 -1.03125,-13.6875 -9.25,-2.71875 -9.25,-2.6875 z m -27.5625,45.6875 c 46.86291,0 84.84375,37.98084 84.84375,84.84375 0,46.86291 -37.98084,84.84373 -84.84375,84.84373 -46.86291,0 -84.84375,-37.98082 -84.84375,-84.84373 0,-46.86291 37.98084,-84.84375 84.84375,-84.84375 z"
           style="fill:#f2f2f2;fill-opacity:1;stroke:#000000;stroke-width:0;stroke-miterlimit:4;stroke-opacity:1;stroke-dasharray:none" />
        <path
           inkscape:connector-curvature="0"
           id="path4082"
           d="m 491.51039,701.30597 -0.24608,3.32308 -0.19439,3.03699 c -3.6031,1.81951 -6.6183,4.46133 -8.94116,7.63003 -0.71509,-0.26843 -1.53375,-0.46681 -3.05837,-0.72997 l -3.70044,-0.60968 -1.05878,1.93551 -1.10283,2.01615 2.32975,2.63656 c 1.18292,1.36008 1.78735,2.07686 2.57932,2.56347 -1.09113,3.52416 -1.43094,7.34351 -0.98918,11.19408 l -0.4549,0.0656 -2.95909,2.1534 -2.97733,2.09104 0.76407,2.1468 0.74578,2.08443 3.52845,0.25367 3.57259,0.17302 0.35609,-0.17178 c 1.69271,3.55929 4.01346,6.66783 6.86322,9.09794 -0.32763,0.75951 -0.50106,1.59976 -0.77409,3.13903 l -0.6021,3.49503 2.01615,1.10289 2.01619,1.10287 2.59241,-2.24915 c 1.08524,-0.94721 1.6851,-1.58348 2.13749,-2.18368 3.8239,1.52848 8.00677,2.18299 12.2166,1.70572 0.51126,0.9572 1.42604,2.11679 3.12735,4.43487 0.49243,0.67107 0.67148,0.72189 2.65203,0.0362 l 2.20921,-0.78234 0.14718,-3.42953 c 0.0598,-1.23709 0.0745,-2.01327 0.0362,-2.65207 3.81105,-1.86543 6.96553,-4.67413 9.36715,-8.02569 0.71172,0.27007 1.52906,0.46997 2.97771,0.68588 l 3.39613,0.49562 1.10286,-2.01617 1.16528,-2.03441 -2.39217,-2.61831 c -1.06015,-1.14888 -1.72178,-1.74461 -2.40733,-2.20746 1.08898,-3.58339 1.42884,-7.47101 0.9344,-11.38119 l 0.33006,-0.0292 2.91506,-2.07261 2.8968,-2.13499 -0.55877,-2.13919 -0.51461,-2.21984 -3.63496,-0.15477 -3.65324,-0.21713 -0.41836,0.19017 c -1.70463,-3.47707 -4.05339,-6.51546 -6.8708,-8.89257 0.40442,-0.83692 0.58916,-1.78479 0.85165,-3.5681 l 0.47733,-3.45852 -1.9538,-1.12113 -1.99786,-1.04048 -2.72479,2.49106 c -1.12495,1.0285 -1.80538,1.61694 -2.26226,2.2202 -3.642,-1.39513 -7.57793,-1.96383 -11.56385,-1.55817 l -1.80183,-2.4525 -1.99958,-2.66551 -2.24573,0.6576 -2.24567,0.65759 z m 7.5535,17.70064 c 7.02724,-2.05765 14.39426,1.97216 16.45193,8.99943 2.05768,7.02725 -1.97221,14.39426 -8.99946,16.4519 -7.02723,2.05767 -14.39424,-1.97218 -16.45191,-8.99942 -2.05766,-7.02725 1.9722,-14.39425 8.99944,-16.45191 z"
           style="fill:#f2f2f2;fill-opacity:1;stroke:#000000;stroke-width:0;stroke-miterlimit:4;stroke-opacity:1;stroke-dasharray:none" />
      </g>
      <text
         sodipodi:linespacing="125%"
         id="text4084"
         y="886.11957"
         x="561.27869"
         style="font-size:63.81468200999999141px;font-style:italic;font-weight:bold;line-height:125%;letter-spacing:0px;word-spacing:0px;fill:#f2f2f2;fill-opacity:1;stroke:none;font-family:Sans;-inkscape-font-specification:Sans Bold Italic"
         xml:space="preserve"><tspan
           y="886.11957"
           x="561.27869"
           id="tspan4086"
           sodipodi:role="line">primer</tspan></text>
    </g>
    <g
       transform="matrix(4.9720929,0,0,4.9720929,-1108.4565,-270.27677)"
       id="g4088"
       style="fill:#f2f2f2"
       inkscape:export-filename="/home/pavle/projects/javascript/primer/images/logo.png"
       inkscape:export-xdpi="19.083559"
       inkscape:export-ydpi="19.083559">
      <path
         style="fill:#f2f2f2;fill-opacity:1;stroke:#000000;stroke-width:0;stroke-miterlimit:4;stroke-opacity:1;stroke-dasharray:none"
         d="m 247.59623,172.2072 -0.79749,1.06484 -0.71857,0.97973 c -1.60329,-0.16292 -3.18569,0.0772 -4.64853,0.64345 -0.1828,-0.24409 -0.4155,-0.48689 -0.87173,-0.90332 l -1.11357,-1.00095 -0.77242,0.42332 -0.80458,0.44097 0.21659,1.38792 c 0.10537,0.7119 0.15452,1.083 0.31625,1.41701 -1.12498,0.95073 -2.06073,2.16234 -2.7403,3.55255 l -0.16712,-0.0758 -1.45848,0.0879 -1.4512,0.063 -0.20472,0.88644 -0.19745,0.86153 1.13229,0.84421 1.16448,0.82658 0.15672,0.0188 c -0.19615,1.56128 -0.0841,3.10602 0.3518,4.53634 -0.27356,0.18501 -0.51261,0.43034 -0.93551,0.88937 l -0.95422,1.04611 0.44096,0.8046 0.44097,0.8046 1.35574,-0.19897 c 0.56876,-0.0852 0.90737,-0.1702 1.18863,-0.27479 0.95749,1.33656 2.22369,2.45634 3.74238,3.20124 -0.0339,0.43193 0.0244,1.01872 0.0981,2.16435 0.0213,0.33164 0.0706,0.38724 0.88426,0.58257 l 0.91136,0.212 0.78712,-1.12192 c 0.28618,-0.40326 0.45806,-0.66117 0.58257,-0.88428 1.68311,0.19219 3.34825,-0.0741 4.87691,-0.68492 0.18131,0.24392 0.41324,0.48695 0.85408,0.87114 l 1.03575,0.89714 0.80459,-0.44097 0.82951,-0.43369 -0.24151,-1.3952 c -0.1095,-0.61446 -0.20392,-0.95714 -0.33497,-1.26027 1.137,-0.97112 2.08745,-2.20568 2.76212,-3.62727 l 0.11729,0.0612 1.42629,-0.0702 1.43357,-0.0951 0.27213,-0.83973 0.30436,-0.85735 -1.18939,-0.83385 -1.18212,-0.85876 -0.18163,-0.026 c 0.17446,-1.53619 0.0379,-3.06336 -0.39852,-4.46889 0.31604,-0.19453 0.58204,-0.47363 1.05388,-1.01702 l 0.9044,-1.06066 -0.41606,-0.79732 -0.44823,-0.77968 -1.45229,0.25187 c -0.5996,0.104 -0.95503,0.15559 -1.23846,0.26024 -0.92498,-1.25258 -2.12658,-2.29039 -3.55455,-3.01122 l -0.0786,-1.21246 -0.0993,-1.32665 -0.89681,-0.26182 -0.8968,-0.26181 z m -1.26625,7.57845 c 2.80627,0.81927 4.41756,3.75923 3.59829,6.56551 -0.81926,2.80628 -3.75924,4.41755 -6.56551,3.59828 -2.80627,-0.81926 -4.41755,-3.75923 -3.59829,-6.5655 0.81927,-2.80628 3.75924,-4.41755 6.56551,-3.59829 z"
         id="path4090"
         inkscape:connector-curvature="0" />
      <text
         xml:space="preserve"
         style="font-size:12.83457184px;font-style:italic;font-weight:bold;line-height:125%;letter-spacing:0px;word-spacing:0px;fill:#f2f2f2;fill-opacity:1;stroke:none;font-family:Sans;-inkscape-font-specification:Sans Bold Italic"
         x="253.28299"
         y="199.86221"
         id="text4092"
         sodipodi:linespacing="125%"><tspan
           sodipodi:role="line"
           id="tspan4094"
           x="253.28299"
           y="199.86221">primer</tspan></text>
    </g>
  </g>
</svg>
