<?xml version="1.0" encoding="UTF-8" standalone="no"?>
<!-- Created with Inkscape (http://www.inkscape.org/) -->

<svg
   xmlns:dc="http://purl.org/dc/elements/1.1/"
   xmlns:cc="http://creativecommons.org/ns#"
   xmlns:rdf="http://www.w3.org/1999/02/22-rdf-syntax-ns#"
   xmlns:svg="http://www.w3.org/2000/svg"
   xmlns="http://www.w3.org/2000/svg"
   xmlns:xlink="http://www.w3.org/1999/xlink"
   xmlns:sodipodi="http://sodipodi.sourceforge.net/DTD/sodipodi-0.dtd"
   xmlns:inkscape="http://www.inkscape.org/namespaces/inkscape"
   width="744.09448819"
   height="1052.3622047"
   id="svg3103"
   version="1.1"
   inkscape:version="0.48.4 r9939"
   sodipodi:docname="site-art.svg">
  <defs
     id="defs3105">
    <marker
       inkscape:stockid="Arrow1Lend"
       orient="auto"
       refY="0.0"
       refX="0.0"
       id="Arrow1Lend"
       style="overflow:visible;">
      <path
         id="path5280"
         d="M 0.0,0.0 L 5.0,-5.0 L -12.5,0.0 L 5.0,5.0 L 0.0,0.0 z "
         style="fill-rule:evenodd;stroke:#000000;stroke-width:1.0pt;"
         transform="scale(0.8) rotate(180) translate(12.5,0)" />
    </marker>
    <linearGradient
       inkscape:collect="always"
       id="linearGradient3984">
      <stop
         style="stop-color:#ffffff;stop-opacity:1"
         offset="0"
         id="stop3986" />
      <stop
         style="stop-color:#ffc500;stop-opacity:0;"
         offset="1"
         id="stop3988" />
    </linearGradient>
    <filter
       inkscape:collect="always"
       id="filter3972">
      <feGaussianBlur
         inkscape:collect="always"
         stdDeviation="5.2424998"
         id="feGaussianBlur3974" />
    </filter>
    <linearGradient
       inkscape:collect="always"
       xlink:href="#linearGradient3984"
       id="linearGradient3990"
       x1="444.64832"
       y1="776.91522"
       x2="526.12054"
       y2="820.83496"
       gradientUnits="userSpaceOnUse"
       spreadMethod="reflect" />
    <filter
       inkscape:collect="always"
       id="filter4012">
      <feGaussianBlur
         inkscape:collect="always"
         stdDeviation="6.7522519"
         id="feGaussianBlur4014" />
    </filter>
    <linearGradient
       inkscape:collect="always"
       xlink:href="#linearGradient3984"
       id="linearGradient4066"
       gradientUnits="userSpaceOnUse"
       spreadMethod="reflect"
       x1="444.64832"
       y1="776.91522"
       x2="526.12054"
       y2="820.83496" />
    <linearGradient
       inkscape:collect="always"
       xlink:href="#linearGradient3984"
       id="linearGradient4068"
       gradientUnits="userSpaceOnUse"
       spreadMethod="reflect"
       x1="444.64832"
       y1="776.91522"
       x2="526.12054"
       y2="820.83496" />
    <linearGradient
       inkscape:collect="always"
       xlink:href="#linearGradient3984"
       id="linearGradient4070"
       gradientUnits="userSpaceOnUse"
       spreadMethod="reflect"
       x1="444.64832"
       y1="776.91522"
       x2="526.12054"
       y2="820.83496" />
    <linearGradient
       inkscape:collect="always"
       xlink:href="#linearGradient3984"
       id="linearGradient4072"
       gradientUnits="userSpaceOnUse"
       spreadMethod="reflect"
       x1="444.64832"
       y1="776.91522"
       x2="526.12054"
       y2="820.83496" />
    <pattern
       patternUnits="userSpaceOnUse"
       width="403"
       height="403"
       patternTransform="translate(-641.5,-349.125)"
       id="pattern4213">
      <g
         id="g4199"
         transform="translate(641.5,349.125)">
        <path
           style="fill:none;stroke:#000000;stroke-width:3;stroke-linecap:butt;stroke-linejoin:miter;stroke-miterlimit:4;stroke-opacity:1;stroke-dasharray:12, 6, 3, 6;stroke-dashoffset:0"
           d="m -640,-347.63782 400,0"
           id="path4175"
           inkscape:connector-curvature="0"
           sodipodi:nodetypes="cc" />
        <path
           sodipodi:nodetypes="cc"
           inkscape:connector-curvature="0"
           id="path4177"
           d="m -640,-267.63782 400,0"
           style="fill:none;stroke:#000000;stroke-width:3;stroke-linecap:butt;stroke-linejoin:miter;stroke-miterlimit:4;stroke-opacity:1;stroke-dasharray:12, 6, 3, 6;stroke-dashoffset:0" />
        <path
           style="fill:none;stroke:#000000;stroke-width:3;stroke-linecap:butt;stroke-linejoin:miter;stroke-miterlimit:4;stroke-opacity:1;stroke-dasharray:12, 6, 3, 6;stroke-dashoffset:0"
           d="m -640,-187.63782 400,0"
           id="path4179"
           inkscape:connector-curvature="0"
           sodipodi:nodetypes="cc" />
        <path
           sodipodi:nodetypes="cc"
           inkscape:connector-curvature="0"
           id="path4181"
           d="m -640,-107.63782 400,0"
           style="fill:none;stroke:#000000;stroke-width:3;stroke-linecap:butt;stroke-linejoin:miter;stroke-miterlimit:4;stroke-opacity:1;stroke-dasharray:12, 6, 3, 6;stroke-dashoffset:0" />
        <path
           style="fill:none;stroke:#000000;stroke-width:3;stroke-linecap:butt;stroke-linejoin:miter;stroke-miterlimit:4;stroke-opacity:1;stroke-dasharray:12, 6, 3, 6;stroke-dashoffset:0"
           d="m -640,-27.637817 400,0"
           id="path4183"
           inkscape:connector-curvature="0"
           sodipodi:nodetypes="cc" />
        <path
           sodipodi:nodetypes="cc"
           inkscape:connector-curvature="0"
           id="path4185"
           d="m -640,52.362183 400,0"
           style="fill:none;stroke:#000000;stroke-width:3;stroke-linecap:butt;stroke-linejoin:miter;stroke-miterlimit:4;stroke-opacity:1;stroke-dasharray:12, 6, 3, 6;stroke-dashoffset:0" />
        <path
           style="fill:none;stroke:#000000;stroke-width:3;stroke-linecap:butt;stroke-linejoin:miter;stroke-miterlimit:4;stroke-opacity:1;stroke-dasharray:12, 6, 3, 6;stroke-dashoffset:0"
           d="m -640,-347.63782 0,400.000003"
           id="path4187"
           inkscape:connector-curvature="0"
           sodipodi:nodetypes="cc" />
        <path
           sodipodi:nodetypes="cc"
           inkscape:connector-curvature="0"
           id="path4189"
           d="m -560,-347.63782 -2,400.000003"
           style="fill:none;stroke:#000000;stroke-width:3;stroke-linecap:butt;stroke-linejoin:miter;stroke-miterlimit:4;stroke-opacity:1;stroke-dasharray:12, 6, 3, 6;stroke-dashoffset:0" />
        <path
           style="fill:none;stroke:#000000;stroke-width:3;stroke-linecap:butt;stroke-linejoin:miter;stroke-miterlimit:4;stroke-opacity:1;stroke-dasharray:12, 6, 3, 6;stroke-dashoffset:0"
           d="m -480,-347.63782 0,400.000003"
           id="path4191"
           inkscape:connector-curvature="0"
           sodipodi:nodetypes="cc" />
        <path
           sodipodi:nodetypes="cc"
           inkscape:connector-curvature="0"
           id="path4193"
           d="m -400,-347.63782 0,400.000003"
           style="fill:none;stroke:#000000;stroke-width:3;stroke-linecap:butt;stroke-linejoin:miter;stroke-miterlimit:4;stroke-opacity:1;stroke-dasharray:12, 6, 3, 6;stroke-dashoffset:0" />
        <path
           style="fill:none;stroke:#000000;stroke-width:3;stroke-linecap:butt;stroke-linejoin:miter;stroke-miterlimit:4;stroke-opacity:1;stroke-dasharray:12, 6, 3, 6;stroke-dashoffset:0"
           d="m -320,-347.63782 -2,400.000003"
           id="path4195"
           inkscape:connector-curvature="0"
           sodipodi:nodetypes="cc" />
        <path
           sodipodi:nodetypes="cc"
           inkscape:connector-curvature="0"
           id="path4197"
           d="m -240,-347.63782 -2,400.000003"
           style="fill:none;stroke:#000000;stroke-width:3;stroke-linecap:butt;stroke-linejoin:miter;stroke-miterlimit:4;stroke-opacity:1;stroke-dasharray:12, 6, 3, 6;stroke-dashoffset:0" />
      </g>
    </pattern>
    <pattern
       patternUnits="userSpaceOnUse"
       width="403"
       height="403"
       patternTransform="translate(-641.5,-349.125)"
       id="pattern4990">
      <rect
         id="rect4228"
         y="0"
         x="0"
         height="403"
         width="403"
         style="fill:none;stroke:none" />
      <path
         sodipodi:nodetypes="cc"
         inkscape:connector-curvature="0"
         id="path4954"
         d="m 1.5,1.48718 400,0"
         style="fill:none;stroke:#000000;stroke-width:3;stroke-linecap:butt;stroke-linejoin:miter;stroke-miterlimit:4;stroke-opacity:1;stroke-dasharray:12, 6, 3, 6;stroke-dashoffset:0" />
      <path
         style="fill:none;stroke:#000000;stroke-width:3;stroke-linecap:butt;stroke-linejoin:miter;stroke-miterlimit:4;stroke-opacity:1;stroke-dasharray:12, 6, 3, 6;stroke-dashoffset:0"
         d="m 1.5,81.48718 400,0"
         id="path4956"
         inkscape:connector-curvature="0"
         sodipodi:nodetypes="cc" />
      <path
         sodipodi:nodetypes="cc"
         inkscape:connector-curvature="0"
         id="path4958"
         d="m 1.5,161.48718 400,0"
         style="fill:none;stroke:#000000;stroke-width:3;stroke-linecap:butt;stroke-linejoin:miter;stroke-miterlimit:4;stroke-opacity:1;stroke-dasharray:12, 6, 3, 6;stroke-dashoffset:0" />
      <path
         style="fill:none;stroke:#000000;stroke-width:3;stroke-linecap:butt;stroke-linejoin:miter;stroke-miterlimit:4;stroke-opacity:1;stroke-dasharray:12, 6, 3, 6;stroke-dashoffset:0"
         d="m 1.5,241.48718 400,0"
         id="path4960"
         inkscape:connector-curvature="0"
         sodipodi:nodetypes="cc" />
      <path
         sodipodi:nodetypes="cc"
         inkscape:connector-curvature="0"
         id="path4962"
         d="m 1.5,321.48718 400,0"
         style="fill:none;stroke:#000000;stroke-width:3;stroke-linecap:butt;stroke-linejoin:miter;stroke-miterlimit:4;stroke-opacity:1;stroke-dasharray:12, 6, 3, 6;stroke-dashoffset:0" />
      <path
         sodipodi:nodetypes="cc"
         inkscape:connector-curvature="0"
         id="path4966"
         d="m 1.5,1.48718 0,400"
         style="fill:none;stroke:#000000;stroke-width:3;stroke-linecap:butt;stroke-linejoin:miter;stroke-miterlimit:4;stroke-opacity:1;stroke-dasharray:12, 6, 3, 6;stroke-dashoffset:0" />
      <path
         style="fill:none;stroke:#000000;stroke-width:3;stroke-linecap:butt;stroke-linejoin:miter;stroke-miterlimit:4;stroke-opacity:1;stroke-dasharray:12, 6, 3, 6;stroke-dashoffset:0"
         d="m 81.5,1.48718 0,400"
         id="path4968"
         inkscape:connector-curvature="0"
         sodipodi:nodetypes="cc" />
      <path
         sodipodi:nodetypes="cc"
         inkscape:connector-curvature="0"
         id="path4970"
         d="m 161.5,1.48718 0,400"
         style="fill:none;stroke:#000000;stroke-width:3;stroke-linecap:butt;stroke-linejoin:miter;stroke-miterlimit:4;stroke-opacity:1;stroke-dasharray:12, 6, 3, 6;stroke-dashoffset:0" />
      <path
         style="fill:none;stroke:#000000;stroke-width:3;stroke-linecap:butt;stroke-linejoin:miter;stroke-miterlimit:4;stroke-opacity:1;stroke-dasharray:12, 6, 3, 6;stroke-dashoffset:0"
         d="m 241.5,1.48718 0,400"
         id="path4972"
         inkscape:connector-curvature="0"
         sodipodi:nodetypes="cc" />
      <path
         sodipodi:nodetypes="cc"
         inkscape:connector-curvature="0"
         id="path4974"
         d="m 321.5,1.48718 0,400"
         style="fill:none;stroke:#000000;stroke-width:3;stroke-linecap:butt;stroke-linejoin:miter;stroke-miterlimit:4;stroke-opacity:1;stroke-dasharray:12, 6, 3, 6;stroke-dashoffset:0" />
    </pattern>
  </defs>
  <sodipodi:namedview
     id="base"
     pagecolor="#ffffff"
     bordercolor="#666666"
     borderopacity="1.0"
     inkscape:pageopacity="0.0"
     inkscape:pageshadow="2"
     inkscape:zoom="0.35"
     inkscape:cx="-37.01396"
     inkscape:cy="840"
     inkscape:document-units="px"
     inkscape:current-layer="svg3103"
     showgrid="true"
     inkscape:window-width="1920"
     inkscape:window-height="1031"
     inkscape:window-x="0"
     inkscape:window-y="0"
     inkscape:window-maximized="1"
     showguides="true"
     inkscape:guide-bbox="true">
    <inkscape:grid
       type="xygrid"
       id="grid5257"
       empspacing="5"
       visible="true"
       enabled="true"
       snapvisiblegridlinesonly="true" />
  </sodipodi:namedview>
  <metadata
     id="metadata3108">
    <rdf:RDF>
      <cc:Work
         rdf:about="">
        <dc:format>image/svg+xml</dc:format>
        <dc:type
           rdf:resource="http://purl.org/dc/dcmitype/StillImage" />
        <dc:title></dc:title>
      </cc:Work>
    </rdf:RDF>
  </metadata>
  <g
     id="g4056"
     transform="translate(-2360,-628.57142)"
     inkscape:export-filename="/home/pavle/projects/javascript/primer/images/primer-gears.png"
     inkscape:export-xdpi="40.809696"
     inkscape:export-ydpi="40.809696">
    <g
       style="fill:#ffc500;filter:url(#filter3972)"
       id="g3178"
       transform="matrix(3.0575261,0,0,3.0575261,-589.79967,-2197.5406)">
      <path
         inkscape:connector-curvature="0"
         id="path3180"
         d="m 439.90137,735.77063 -1.7488,4.87977 -1.55252,4.47233 c -6.15729,1.23166 -11.77466,3.94024 -16.57284,7.7262 -0.96061,-0.69936 -2.10556,-1.33671 -4.282,-2.36432 l -5.29452,-2.4506 -2.39102,2.46206 -2.49055,2.56467 2.39796,4.92013 c 1.20866,2.53022 1.8172,3.85579 2.80245,4.91417 -3.09919,4.83034 -5.19458,10.41519 -6.1312,16.37139 l -0.70924,-0.0906 -5.33044,1.99964 -5.33188,1.89857 0.25405,3.53575 0.25255,3.43465 5.18451,1.84544 5.28417,1.7429 0.60517,-0.10967 c 1.05974,6.03895 3.24823,11.66292 6.51149,16.48947 -0.80656,1.00263 -1.41546,2.1903 -2.46397,4.38459 l -2.35393,4.98973 2.56465,2.49063 2.5647,2.49062 4.82048,-2.29545 c 2.02031,-0.96942 3.1838,-1.67421 4.11126,-2.38619 5.09811,3.87934 11.09727,6.59746 17.60682,7.63003 0.36901,1.64733 1.25894,3.76563 2.84699,7.94733 0.45958,1.21056 0.70692,1.36109 3.96087,1.15553 l 3.63689,-0.25552 1.64474,-5.08044 c 0.60332,-1.82982 0.94766,-2.98735 1.1555,-3.96094 6.4881,-1.21417 12.38358,-4.11509 17.37577,-8.1425 0.95486,0.70044 2.09721,1.33952 4.17937,2.26473 l 4.88569,2.15325 2.49059,-2.56468 2.59174,-2.56614 -2.49912,-4.91866 c -1.11231,-2.16263 -1.85684,-3.33047 -2.69243,-4.30903 3.12056,-4.92005 5.24438,-10.60722 6.12677,-16.67467 l 0.50694,0.0934 5.23087,-1.89682 5.22942,-1.9979 0.0505,-3.43909 0.15035,-3.54166 -5.38526,-1.74141 -5.38676,-1.84249 -0.70618,0.11144 c -1.11175,-5.92065 -3.37136,-11.4511 -6.60814,-16.18473 0.95385,-1.08679 1.62439,-2.43113 2.75841,-4.99567 l 2.15172,-4.98678 -2.46358,-2.49209 -2.56315,-2.38949 -5.11937,2.60315 c -2.1136,1.07479 -3.37804,1.67445 -4.3135,2.38914 -4.88075,-3.60388 -10.54535,-6.09081 -16.68948,-7.13776 l -1.68292,-4.42497 -1.89093,-4.82644 -3.63985,0.0533 -3.63977,0.0534 z m 3.97417,29.67326 c 11.38964,-0.16683 20.76091,8.93374 20.92776,20.32341 0.16688,11.38967 -8.9338,20.76089 -20.32344,20.92772 -11.38964,0.16687 -20.76088,-8.93375 -20.92775,-20.32338 -0.16684,-11.38967 8.9338,-20.76089 20.32343,-20.92775 z"
         style="fill:#ffc500;fill-opacity:1;stroke:#000000;stroke-width:0;stroke-miterlimit:4;stroke-opacity:1;stroke-dasharray:none" />
      <path
         style="fill:#ffc500;fill-opacity:1;stroke:#000000;stroke-width:0;stroke-miterlimit:4;stroke-opacity:1;stroke-dasharray:none"
         d="m 493.79046,637.9738 -8.25,11 -7.40625,10.09375 c -16.55454,-1.6822 -32.89567,0.80951 -48,6.65625 -1.88748,-2.52032 -4.28926,-5.04398 -9,-9.34375 l -11.5,-10.3125 -7.96875,4.375 -8.3125,4.53125 2.21875,14.34375 c 1.08799,7.35061 1.61132,11.17623 3.28125,14.625 -11.61583,9.81663 -21.26444,22.33309 -28.28125,36.6875 l -1.75,-0.78125 -15.0625,0.90625 -14.96875,0.65625 -2.125,9.15625 -2.03125,8.875 11.6875,8.71875 12.03125,8.53125 1.625,0.21875 c -2.02532,16.12077 -0.87581,32.04395 3.625,46.8125 -2.8246,1.9103 -5.28965,4.44785 -9.65625,9.1875 l -9.84375,10.8125 4.53125,8.3125 4.5625,8.31248 14,-2.0625 c 5.87265,-0.8797 9.37714,-1.7638 12.28125,-2.8437 9.88642,13.8004 22.94401,25.3711 38.625,33.0625 -0.35002,4.4598 0.27025,10.5147 1.03125,22.3437 0.21991,3.4243 0.72366,3.9832 9.125,6 l 9.40625,2.1875 8.125,-11.5625 c 2.95491,-4.1638 4.7144,-6.8213 6,-9.125 17.37871,1.9845 34.59105,-0.7868 50.375,-7.0937 1.87209,2.5186 4.26067,5.0331 8.8125,9 l 10.6875,9.2812 8.3125,-4.5625 8.5625,-4.4687 -2.5,-14.4063 c -1.13063,-6.3445 -2.08437,-9.9013 -3.4375,-13.0312 11.7399,-10.0272 21.53379,-22.7591 28.5,-37.43753 l 1.21875,0.625 14.71875,-0.71875 14.8125,-1 2.8125,-8.65625 3.15625,-8.84375 -12.28125,-8.625 -12.21875,-8.875 -1.875,-0.25 c 1.80136,-15.8617 0.38119,-31.64366 -4.125,-46.15625 3.26323,-2.0086 6.00309,-4.88932 10.875,-10.5 l 9.34375,-10.9375 -4.28125,-8.25 -4.625,-8.03125 -15,2.59375 c -6.19109,1.07384 -9.85474,1.60695 -12.78125,2.6875 -9.55073,-12.93332 -21.97446,-23.65093 -36.71875,-31.09375 l -0.8125,-12.53125 -1.03125,-13.6875 -9.25,-2.71875 -9.25,-2.6875 z m -27.5625,45.6875 c 46.86291,0 84.84375,37.98084 84.84375,84.84375 0,46.86291 -37.98084,84.84373 -84.84375,84.84373 -46.86291,0 -84.84375,-37.98082 -84.84375,-84.84373 0,-46.86291 37.98084,-84.84375 84.84375,-84.84375 z"
         id="path3182"
         inkscape:connector-curvature="0" />
      <path
         style="fill:#ffc500;fill-opacity:1;stroke:#000000;stroke-width:0;stroke-miterlimit:4;stroke-opacity:1;stroke-dasharray:none"
         d="m 491.51039,701.30597 -0.24608,3.32308 -0.19439,3.03699 c -3.6031,1.81951 -6.6183,4.46133 -8.94116,7.63003 -0.71509,-0.26843 -1.53375,-0.46681 -3.05837,-0.72997 l -3.70044,-0.60968 -1.05878,1.93551 -1.10283,2.01615 2.32975,2.63656 c 1.18292,1.36008 1.78735,2.07686 2.57932,2.56347 -1.09113,3.52416 -1.43094,7.34351 -0.98918,11.19408 l -0.4549,0.0656 -2.95909,2.1534 -2.97733,2.09104 0.76407,2.1468 0.74578,2.08443 3.52845,0.25367 3.57259,0.17302 0.35609,-0.17178 c 1.69271,3.55929 4.01346,6.66783 6.86322,9.09794 -0.32763,0.75951 -0.50106,1.59976 -0.77409,3.13903 l -0.6021,3.49503 2.01615,1.10289 2.01619,1.10287 2.59241,-2.24915 c 1.08524,-0.94721 1.6851,-1.58348 2.13749,-2.18368 3.8239,1.52848 8.00677,2.18299 12.2166,1.70572 0.51126,0.9572 1.42604,2.11679 3.12735,4.43487 0.49243,0.67107 0.67148,0.72189 2.65203,0.0362 l 2.20921,-0.78234 0.14718,-3.42953 c 0.0598,-1.23709 0.0745,-2.01327 0.0362,-2.65207 3.81105,-1.86543 6.96553,-4.67413 9.36715,-8.02569 0.71172,0.27007 1.52906,0.46997 2.97771,0.68588 l 3.39613,0.49562 1.10286,-2.01617 1.16528,-2.03441 -2.39217,-2.61831 c -1.06015,-1.14888 -1.72178,-1.74461 -2.40733,-2.20746 1.08898,-3.58339 1.42884,-7.47101 0.9344,-11.38119 l 0.33006,-0.0292 2.91506,-2.07261 2.8968,-2.13499 -0.55877,-2.13919 -0.51461,-2.21984 -3.63496,-0.15477 -3.65324,-0.21713 -0.41836,0.19017 c -1.70463,-3.47707 -4.05339,-6.51546 -6.8708,-8.89257 0.40442,-0.83692 0.58916,-1.78479 0.85165,-3.5681 l 0.47733,-3.45852 -1.9538,-1.12113 -1.99786,-1.04048 -2.72479,2.49106 c -1.12495,1.0285 -1.80538,1.61694 -2.26226,2.2202 -3.642,-1.39513 -7.57793,-1.96383 -11.56385,-1.55817 l -1.80183,-2.4525 -1.99958,-2.66551 -2.24573,0.6576 -2.24567,0.65759 z m 7.5535,17.70064 c 7.02724,-2.05765 14.39426,1.97216 16.45193,8.99943 2.05768,7.02725 -1.97221,14.39426 -8.99946,16.4519 -7.02723,2.05767 -14.39424,-1.97218 -16.45191,-8.99942 -2.05766,-7.02725 1.9722,-14.39425 8.99944,-16.45191 z"
         id="path3184"
         inkscape:connector-curvature="0" />
    </g>
    <g
       transform="matrix(3.0575261,0,0,3.0575261,-589.79967,-2197.5406)"
       id="g3976"
       style="fill:url(#linearGradient4072);fill-opacity:1;stroke:#7b5500;stroke-width:2.37381458;stroke-miterlimit:4;stroke-opacity:1;stroke-dasharray:none">
      <path
         style="fill:url(#linearGradient4066);fill-opacity:1;stroke:#7b5500;stroke-width:2.37381458;stroke-miterlimit:4;stroke-opacity:1;stroke-dasharray:none"
         d="m 439.90137,735.77063 -1.7488,4.87977 -1.55252,4.47233 c -6.15729,1.23166 -11.77466,3.94024 -16.57284,7.7262 -0.96061,-0.69936 -2.10556,-1.33671 -4.282,-2.36432 l -5.29452,-2.4506 -2.39102,2.46206 -2.49055,2.56467 2.39796,4.92013 c 1.20866,2.53022 1.8172,3.85579 2.80245,4.91417 -3.09919,4.83034 -5.19458,10.41519 -6.1312,16.37139 l -0.70924,-0.0906 -5.33044,1.99964 -5.33188,1.89857 0.25405,3.53575 0.25255,3.43465 5.18451,1.84544 5.28417,1.7429 0.60517,-0.10967 c 1.05974,6.03895 3.24823,11.66292 6.51149,16.48947 -0.80656,1.00263 -1.41546,2.1903 -2.46397,4.38459 l -2.35393,4.98973 2.56465,2.49063 2.5647,2.49062 4.82048,-2.29545 c 2.02031,-0.96942 3.1838,-1.67421 4.11126,-2.38619 5.09811,3.87934 11.09727,6.59746 17.60682,7.63003 0.36901,1.64733 1.25894,3.76563 2.84699,7.94733 0.45958,1.21056 0.70692,1.36109 3.96087,1.15553 l 3.63689,-0.25552 1.64474,-5.08044 c 0.60332,-1.82982 0.94766,-2.98735 1.1555,-3.96094 6.4881,-1.21417 12.38358,-4.11509 17.37577,-8.1425 0.95486,0.70044 2.09721,1.33952 4.17937,2.26473 l 4.88569,2.15325 2.49059,-2.56468 2.59174,-2.56614 -2.49912,-4.91866 c -1.11231,-2.16263 -1.85684,-3.33047 -2.69243,-4.30903 3.12056,-4.92005 5.24438,-10.60722 6.12677,-16.67467 l 0.50694,0.0934 5.23087,-1.89682 5.22942,-1.9979 0.0505,-3.43909 0.15035,-3.54166 -5.38526,-1.74141 -5.38676,-1.84249 -0.70618,0.11144 c -1.11175,-5.92065 -3.37136,-11.4511 -6.60814,-16.18473 0.95385,-1.08679 1.62439,-2.43113 2.75841,-4.99567 l 2.15172,-4.98678 -2.46358,-2.49209 -2.56315,-2.38949 -5.11937,2.60315 c -2.1136,1.07479 -3.37804,1.67445 -4.3135,2.38914 -4.88075,-3.60388 -10.54535,-6.09081 -16.68948,-7.13776 l -1.68292,-4.42497 -1.89093,-4.82644 -3.63985,0.0533 -3.63977,0.0534 z m 3.97417,29.67326 c 11.38964,-0.16683 20.76091,8.93374 20.92776,20.32341 0.16688,11.38967 -8.9338,20.76089 -20.32344,20.92772 -11.38964,0.16687 -20.76088,-8.93375 -20.92775,-20.32338 -0.16684,-11.38967 8.9338,-20.76089 20.32343,-20.92775 z"
         id="path3978"
         inkscape:connector-curvature="0" />
      <path
         inkscape:connector-curvature="0"
         id="path3980"
         d="m 493.79046,637.9738 -8.25,11 -7.40625,10.09375 c -16.55454,-1.6822 -32.89567,0.80951 -48,6.65625 -1.88748,-2.52032 -4.28926,-5.04398 -9,-9.34375 l -11.5,-10.3125 -7.96875,4.375 -8.3125,4.53125 2.21875,14.34375 c 1.08799,7.35061 1.61132,11.17623 3.28125,14.625 -11.61583,9.81663 -21.26444,22.33309 -28.28125,36.6875 l -1.75,-0.78125 -15.0625,0.90625 -14.96875,0.65625 -2.125,9.15625 -2.03125,8.875 11.6875,8.71875 12.03125,8.53125 1.625,0.21875 c -2.02532,16.12077 -0.87581,32.04395 3.625,46.8125 -2.8246,1.9103 -5.28965,4.44785 -9.65625,9.1875 l -9.84375,10.8125 4.53125,8.3125 4.5625,8.31248 14,-2.0625 c 5.87265,-0.8797 9.37714,-1.7638 12.28125,-2.8437 9.88642,13.8004 22.94401,25.3711 38.625,33.0625 -0.35002,4.4598 0.27025,10.5147 1.03125,22.3437 0.21991,3.4243 0.72366,3.9832 9.125,6 l 9.40625,2.1875 8.125,-11.5625 c 2.95491,-4.1638 4.7144,-6.8213 6,-9.125 17.37871,1.9845 34.59105,-0.7868 50.375,-7.0937 1.87209,2.5186 4.26067,5.0331 8.8125,9 l 10.6875,9.2812 8.3125,-4.5625 8.5625,-4.4687 -2.5,-14.4063 c -1.13063,-6.3445 -2.08437,-9.9013 -3.4375,-13.0312 11.7399,-10.0272 21.53379,-22.7591 28.5,-37.43753 l 1.21875,0.625 14.71875,-0.71875 14.8125,-1 2.8125,-8.65625 3.15625,-8.84375 -12.28125,-8.625 -12.21875,-8.875 -1.875,-0.25 c 1.80136,-15.8617 0.38119,-31.64366 -4.125,-46.15625 3.26323,-2.0086 6.00309,-4.88932 10.875,-10.5 l 9.34375,-10.9375 -4.28125,-8.25 -4.625,-8.03125 -15,2.59375 c -6.19109,1.07384 -9.85474,1.60695 -12.78125,2.6875 -9.55073,-12.93332 -21.97446,-23.65093 -36.71875,-31.09375 l -0.8125,-12.53125 -1.03125,-13.6875 -9.25,-2.71875 -9.25,-2.6875 z m -27.5625,45.6875 c 46.86291,0 84.84375,37.98084 84.84375,84.84375 0,46.86291 -37.98084,84.84373 -84.84375,84.84373 -46.86291,0 -84.84375,-37.98082 -84.84375,-84.84373 0,-46.86291 37.98084,-84.84375 84.84375,-84.84375 z"
         style="fill:url(#linearGradient4068);fill-opacity:1;stroke:#7b5500;stroke-width:2.37381458;stroke-miterlimit:4;stroke-opacity:1;stroke-dasharray:none" />
      <path
         inkscape:connector-curvature="0"
         id="path3982"
         d="m 491.51039,701.30597 -0.24608,3.32308 -0.19439,3.03699 c -3.6031,1.81951 -6.6183,4.46133 -8.94116,7.63003 -0.71509,-0.26843 -1.53375,-0.46681 -3.05837,-0.72997 l -3.70044,-0.60968 -1.05878,1.93551 -1.10283,2.01615 2.32975,2.63656 c 1.18292,1.36008 1.78735,2.07686 2.57932,2.56347 -1.09113,3.52416 -1.43094,7.34351 -0.98918,11.19408 l -0.4549,0.0656 -2.95909,2.1534 -2.97733,2.09104 0.76407,2.1468 0.74578,2.08443 3.52845,0.25367 3.57259,0.17302 0.35609,-0.17178 c 1.69271,3.55929 4.01346,6.66783 6.86322,9.09794 -0.32763,0.75951 -0.50106,1.59976 -0.77409,3.13903 l -0.6021,3.49503 2.01615,1.10289 2.01619,1.10287 2.59241,-2.24915 c 1.08524,-0.94721 1.6851,-1.58348 2.13749,-2.18368 3.8239,1.52848 8.00677,2.18299 12.2166,1.70572 0.51126,0.9572 1.42604,2.11679 3.12735,4.43487 0.49243,0.67107 0.67148,0.72189 2.65203,0.0362 l 2.20921,-0.78234 0.14718,-3.42953 c 0.0598,-1.23709 0.0745,-2.01327 0.0362,-2.65207 3.81105,-1.86543 6.96553,-4.67413 9.36715,-8.02569 0.71172,0.27007 1.52906,0.46997 2.97771,0.68588 l 3.39613,0.49562 1.10286,-2.01617 1.16528,-2.03441 -2.39217,-2.61831 c -1.06015,-1.14888 -1.72178,-1.74461 -2.40733,-2.20746 1.08898,-3.58339 1.42884,-7.47101 0.9344,-11.38119 l 0.33006,-0.0292 2.91506,-2.07261 2.8968,-2.13499 -0.55877,-2.13919 -0.51461,-2.21984 -3.63496,-0.15477 -3.65324,-0.21713 -0.41836,0.19017 c -1.70463,-3.47707 -4.05339,-6.51546 -6.8708,-8.89257 0.40442,-0.83692 0.58916,-1.78479 0.85165,-3.5681 l 0.47733,-3.45852 -1.9538,-1.12113 -1.99786,-1.04048 -2.72479,2.49106 c -1.12495,1.0285 -1.80538,1.61694 -2.26226,2.2202 -3.642,-1.39513 -7.57793,-1.96383 -11.56385,-1.55817 l -1.80183,-2.4525 -1.99958,-2.66551 -2.24573,0.6576 -2.24567,0.65759 z m 7.5535,17.70064 c 7.02724,-2.05765 14.39426,1.97216 16.45193,8.99943 2.05768,7.02725 -1.97221,14.39426 -8.99946,16.4519 -7.02723,2.05767 -14.39424,-1.97218 -16.45191,-8.99942 -2.05766,-7.02725 1.9722,-14.39425 8.99944,-16.45191 z"
         style="fill:url(#linearGradient4070);fill-opacity:1;stroke:#7b5500;stroke-width:2.37381458;stroke-miterlimit:4;stroke-opacity:1;stroke-dasharray:none" />
    </g>
  </g>
  <rect
     style="stroke:none;fill:none"
     width="403"
     height="403"
     x="-641.5"
     y="-349.125"
     id="rect5003" />
  <rect
     style="fill:none;stroke:none"
     width="403"
     height="403"
     x="-641.5"
     y="-349.125"
     id="rect5007" />
  <g
     id="g5071"
     transform="translate(-564.48155,-96.162441)">
    <rect
       y="172.36218"
       x="-1220"
       height="580"
       width="840"
       id="rect5005"
       style="fill:#0076ff;fill-opacity:1;stroke:#e3eeff;stroke-width:0;stroke-miterlimit:4;stroke-opacity:1;stroke-dasharray:none;stroke-dashoffset:0" />
    <path
       sodipodi:nodetypes="cc"
       inkscape:connector-curvature="0"
       id="path5019"
       d="m -1160,172.36218 0,600"
       style="fill:#ffffff;stroke:#ffffff;stroke-width:3;stroke-linecap:butt;stroke-linejoin:miter;stroke-miterlimit:4;stroke-opacity:1;stroke-dasharray:12, 6, 3, 6;stroke-dashoffset:0" />
    <path
       style="fill:#ffffff;stroke:#ffffff;stroke-width:3;stroke-linecap:butt;stroke-linejoin:miter;stroke-miterlimit:4;stroke-opacity:1;stroke-dasharray:12, 6, 3, 6;stroke-dashoffset:0"
       d="m -1100,172.36218 0,600"
       id="path5029"
       inkscape:connector-curvature="0"
       sodipodi:nodetypes="cc" />
    <path
       sodipodi:nodetypes="cc"
       inkscape:connector-curvature="0"
       id="path5031"
       d="m -1040,172.36218 0,600"
       style="fill:#ffffff;stroke:#ffffff;stroke-width:3;stroke-linecap:butt;stroke-linejoin:miter;stroke-miterlimit:4;stroke-opacity:1;stroke-dasharray:12, 6, 3, 6;stroke-dashoffset:0" />
    <path
       style="fill:#ffffff;stroke:#ffffff;stroke-width:3;stroke-linecap:butt;stroke-linejoin:miter;stroke-miterlimit:4;stroke-opacity:1;stroke-dasharray:12, 6, 3, 6;stroke-dashoffset:0"
       d="m -980,172.36218 0,600"
       id="path5033"
       inkscape:connector-curvature="0"
       sodipodi:nodetypes="cc" />
    <path
       sodipodi:nodetypes="cc"
       inkscape:connector-curvature="0"
       id="path5035"
       d="m -920,172.36218 0,600"
       style="fill:#ffffff;stroke:#ffffff;stroke-width:3;stroke-linecap:butt;stroke-linejoin:miter;stroke-miterlimit:4;stroke-opacity:1;stroke-dasharray:12, 6, 3, 6;stroke-dashoffset:0" />
    <path
       style="fill:#ffffff;stroke:#ffffff;stroke-width:3;stroke-linecap:butt;stroke-linejoin:miter;stroke-miterlimit:4;stroke-opacity:1;stroke-dasharray:12, 6, 3, 6;stroke-dashoffset:0"
       d="m -860,172.36218 0,600"
       id="path5037"
       inkscape:connector-curvature="0"
       sodipodi:nodetypes="cc" />
    <path
       sodipodi:nodetypes="cc"
       inkscape:connector-curvature="0"
       id="path5039"
       d="m -800,172.36218 0,600"
       style="fill:#ffffff;stroke:#ffffff;stroke-width:3;stroke-linecap:butt;stroke-linejoin:miter;stroke-miterlimit:4;stroke-opacity:1;stroke-dasharray:12, 6, 3, 6;stroke-dashoffset:0" />
    <path
       style="fill:#ffffff;stroke:#ffffff;stroke-width:3;stroke-linecap:butt;stroke-linejoin:miter;stroke-miterlimit:4;stroke-opacity:1;stroke-dasharray:12, 6, 3, 6;stroke-dashoffset:0"
       d="m -740,172.36218 0,600"
       id="path5041"
       inkscape:connector-curvature="0"
       sodipodi:nodetypes="cc" />
    <path
       sodipodi:nodetypes="cc"
       inkscape:connector-curvature="0"
       id="path5043"
       d="m -680,172.36218 0,600"
       style="fill:#ffffff;stroke:#ffffff;stroke-width:3;stroke-linecap:butt;stroke-linejoin:miter;stroke-miterlimit:4;stroke-opacity:1;stroke-dasharray:12, 6, 3, 6;stroke-dashoffset:0" />
    <path
       style="fill:#ffffff;stroke:#ffffff;stroke-width:3;stroke-linecap:butt;stroke-linejoin:miter;stroke-miterlimit:4;stroke-opacity:1;stroke-dasharray:12, 6, 3, 6;stroke-dashoffset:0"
       d="m -622,172.36218 0,600"
       id="path5045"
       inkscape:connector-curvature="0"
       sodipodi:nodetypes="cc" />
    <path
       sodipodi:nodetypes="cc"
       inkscape:connector-curvature="0"
       id="path5047"
       d="m -562,172.36218 0,600"
       style="fill:#ffffff;stroke:#ffffff;stroke-width:3;stroke-linecap:butt;stroke-linejoin:miter;stroke-miterlimit:4;stroke-opacity:1;stroke-dasharray:12, 6, 3, 6;stroke-dashoffset:0" />
    <path
       style="fill:#ffffff;stroke:#ffffff;stroke-width:3;stroke-linecap:butt;stroke-linejoin:miter;stroke-miterlimit:4;stroke-opacity:1;stroke-dasharray:12, 6, 3, 6;stroke-dashoffset:0"
       d="m -502,172.36218 0,600"
       id="path5049"
       inkscape:connector-curvature="0"
       sodipodi:nodetypes="cc" />
    <path
       sodipodi:nodetypes="cc"
       inkscape:connector-curvature="0"
       id="path5051"
       d="m -442,172.36218 0,600"
       style="fill:#ffffff;stroke:#ffffff;stroke-width:3;stroke-linecap:butt;stroke-linejoin:miter;stroke-miterlimit:4;stroke-opacity:1;stroke-dasharray:12, 6, 3, 6;stroke-dashoffset:0" />
    <path
       style="fill:#ffffff;stroke:#ffffff;stroke-width:3;stroke-linecap:butt;stroke-linejoin:miter;stroke-miterlimit:4;stroke-opacity:1;stroke-dasharray:12, 6, 3, 6;stroke-dashoffset:0"
       d="m -380,232.36218 -840.5714,0"
       id="path5053"
       inkscape:connector-curvature="0"
       sodipodi:nodetypes="cc" />
    <path
       sodipodi:nodetypes="cc"
       inkscape:connector-curvature="0"
       id="path5055"
       d="m -380,290.36218 -840.5714,0"
       style="fill:#ffffff;stroke:#ffffff;stroke-width:3;stroke-linecap:butt;stroke-linejoin:miter;stroke-miterlimit:4;stroke-opacity:1;stroke-dasharray:12, 6, 3, 6;stroke-dashoffset:0" />
    <path
       style="fill:#ffffff;stroke:#ffffff;stroke-width:3;stroke-linecap:butt;stroke-linejoin:miter;stroke-miterlimit:4;stroke-opacity:1;stroke-dasharray:12, 6, 3, 6;stroke-dashoffset:0"
       d="m -380,352.36218 -840.5714,0"
       id="path5057"
       inkscape:connector-curvature="0"
       sodipodi:nodetypes="cc" />
    <path
       sodipodi:nodetypes="cc"
       inkscape:connector-curvature="0"
       id="path5059"
       d="m -380,412.36218 -840.5714,0"
       style="fill:#ffffff;stroke:#ffffff;stroke-width:3;stroke-linecap:butt;stroke-linejoin:miter;stroke-miterlimit:4;stroke-opacity:1;stroke-dasharray:12, 6, 3, 6;stroke-dashoffset:0" />
    <path
       style="fill:#ffffff;stroke:#ffffff;stroke-width:3;stroke-linecap:butt;stroke-linejoin:miter;stroke-miterlimit:4;stroke-opacity:1;stroke-dasharray:12, 6, 3, 6;stroke-dashoffset:0"
       d="m -380,470.36218 -840.5714,0"
       id="path5061"
       inkscape:connector-curvature="0"
       sodipodi:nodetypes="cc" />
    <path
       sodipodi:nodetypes="cc"
       inkscape:connector-curvature="0"
       id="path5063"
       d="m -380,530.36218 -840.5714,0"
       style="fill:#ffffff;stroke:#ffffff;stroke-width:3;stroke-linecap:butt;stroke-linejoin:miter;stroke-miterlimit:4;stroke-opacity:1;stroke-dasharray:12, 6, 3, 6;stroke-dashoffset:0" />
    <path
       style="fill:#ffffff;stroke:#ffffff;stroke-width:3;stroke-linecap:butt;stroke-linejoin:miter;stroke-miterlimit:4;stroke-opacity:1;stroke-dasharray:12, 6, 3, 6;stroke-dashoffset:0"
       d="m -380,590.36218 -840.5714,0"
       id="path5065"
       inkscape:connector-curvature="0"
       sodipodi:nodetypes="cc" />
    <path
       sodipodi:nodetypes="cc"
       inkscape:connector-curvature="0"
       id="path5067"
       d="m -380,652.36218 -840.5714,0"
       style="fill:#ffffff;stroke:#ffffff;stroke-width:3;stroke-linecap:butt;stroke-linejoin:miter;stroke-miterlimit:4;stroke-opacity:1;stroke-dasharray:12, 6, 3, 6;stroke-dashoffset:0" />
    <path
       style="fill:#ffffff;stroke:#ffffff;stroke-width:3;stroke-linecap:butt;stroke-linejoin:miter;stroke-miterlimit:4;stroke-opacity:1;stroke-dasharray:12, 6, 3, 6;stroke-dashoffset:0"
       d="m -380,710.36218 -840.5714,0"
       id="path5069"
       inkscape:connector-curvature="0"
       sodipodi:nodetypes="cc" />
  </g>
  <rect
     style="fill:#0076ff;fill-opacity:1;stroke:#ffffff;stroke-width:0;stroke-miterlimit:4;stroke-opacity:1;stroke-dasharray:none;stroke-dashoffset:0"
     id="rect5240"
     width="989.94946"
     height="664.68036"
     x="-737.41138"
     y="68.473595" />
  <rect
     style="fill:#0076ff;fill-opacity:1;stroke:#ffffff;stroke-width:4;stroke-miterlimit:4;stroke-opacity:1;stroke-dasharray:none;stroke-dashoffset:0"
     id="rect5242"
     width="925.29968"
     height="604.07129"
     x="-705.08649"
     y="98.778183" />
  <path
     style="fill:#0076ff;fill-opacity:1;stroke:#ffffff;stroke-width:4;stroke-miterlimit:4;stroke-opacity:1;stroke-dashoffset:0"
     d="m -638.4164,395.46855 248.49753,0 -52,105.36045 -154.49753,0 z"
     id="rect5244"
     inkscape:connector-curvature="0"
     sodipodi:nodetypes="ccccc" />
  <rect
     style="fill:#0076ff;fill-opacity:1;stroke:#ffffff;stroke-width:4;stroke-miterlimit:4;stroke-opacity:1;stroke-dasharray:none;stroke-dashoffset:0"
     id="rect5247"
     width="270.72089"
     height="96.974648"
     x="-155.56349"
     y="173.52946" />
  <rect
     y="415.57007"
     x="-153.5432"
     height="96.974648"
     width="270.72089"
     id="rect5253"
     style="fill:#0076ff;fill-opacity:1;stroke:#ffffff;stroke-width:4;stroke-miterlimit:4;stroke-opacity:1;stroke-dasharray:none;stroke-dashoffset:0" />
  <rect
     style="fill:#0076ff;fill-opacity:1;stroke:#ffffff;stroke-width:4;stroke-miterlimit:4;stroke-opacity:1;stroke-dasharray:none;stroke-dashoffset:0"
     id="rect5255"
     width="270.72089"
     height="96.974648"
     x="-153.5432"
     y="295.59039" />
  <path
     inkscape:connector-curvature="0"
     id="path5261"
     d="m -160,212.36218 -420,0 0,180"
     style="fill:none;stroke:#ffffff;stroke-width:4;stroke-linecap:butt;stroke-linejoin:miter;stroke-miterlimit:3.39999999999999991;stroke-opacity:1;stroke-dasharray:12, 12;stroke-dashoffset:0;marker-end:none"
     sodipodi:nodetypes="ccc" />
  <text
     xml:space="preserve"
     style="font-size:40px;font-style:italic;font-weight:normal;line-height:125%;letter-spacing:0px;word-spacing:0px;fill:#ffffff;fill-opacity:1;stroke:#ffffff;stroke-opacity:1;font-family:Sans;-inkscape-font-specification:Sans Italic"
     x="40"
     y="652.36218"
     id="text5263"
     sodipodi:linespacing="125%"><tspan
       sodipodi:role="line"
       id="tspan5265"
       x="40"
       y="652.36218">primer</tspan></text>
  <path
     inkscape:connector-curvature="0"
     id="path5269"
     d="m -160,332.36218 -300,0 0,60"
     style="fill:none;stroke:#fff7f7;stroke-width:4;stroke-linecap:butt;stroke-linejoin:miter;stroke-miterlimit:4;stroke-opacity:1;stroke-dasharray:12, 12;stroke-dashoffset:0"
     sodipodi:nodetypes="ccc" />
  <path
     sodipodi:nodetypes="cccc"
     style="fill:none;stroke:#fff7f7;stroke-width:4;stroke-linecap:butt;stroke-linejoin:miter;stroke-miterlimit:4;stroke-opacity:1;stroke-dasharray:12, 12;stroke-dashoffset:0"
     d="m -20,512.36218 0,120 -540,0 0,-120"
     id="path5271"
     inkscape:connector-curvature="0" />
  <rect
     style="fill:#ffffff;fill-opacity:1;stroke:#ffffff;stroke-width:4;stroke-miterlimit:3.4000001;stroke-opacity:1;stroke-dasharray:12, 12;stroke-dashoffset:0"
     id="rect5899"
     width="0"
     height="0"
     x="0"
     y="0" />
</svg>
