<?xml version="1.0" encoding="UTF-8" standalone="no"?>
<!-- Created with Inkscape (http://www.inkscape.org/) -->

<svg
   xmlns:dc="http://purl.org/dc/elements/1.1/"
   xmlns:cc="http://creativecommons.org/ns#"
   xmlns:rdf="http://www.w3.org/1999/02/22-rdf-syntax-ns#"
   xmlns:svg="http://www.w3.org/2000/svg"
   xmlns="http://www.w3.org/2000/svg"
   xmlns:sodipodi="http://sodipodi.sourceforge.net/DTD/sodipodi-0.dtd"
   xmlns:inkscape="http://www.inkscape.org/namespaces/inkscape"
   width="128"
   height="128"
   id="svg2"
   version="1.1"
   inkscape:version="0.47 r22583"
   sodipodi:docname="settings.svg">
  <sodipodi:namedview
     id="base"
     pagecolor="#ffffff"
     bordercolor="#666666"
     borderopacity="1.0"
     inkscape:pageopacity="0.0"
     inkscape:pageshadow="2"
     inkscape:zoom="1.979899"
     inkscape:cx="-30.178874"
     inkscape:cy="16.14178"
     inkscape:document-units="px"
     inkscape:current-layer="layer1"
     showgrid="true"
     inkscape:window-width="1440"
     inkscape:window-height="848"
     inkscape:window-x="1279"
     inkscape:window-y="0"
     inkscape:window-maximized="1"
     showguides="true"
     inkscape:guide-bbox="true">
    <inkscape:grid
       snapvisiblegridlinesonly="true"
       enabled="true"
       visible="true"
       empspacing="5"
       id="grid4791"
       type="xygrid" />
  </sodipodi:namedview>
  <defs
     id="defs4">
    <inkscape:perspective
       id="perspective10"
       inkscape:persp3d-origin="372.04724 : 350.78739 : 1"
       inkscape:vp_z="744.09448 : 526.18109 : 1"
       inkscape:vp_y="0 : 1000 : 0"
       inkscape:vp_x="0 : 526.18109 : 1"
       sodipodi:type="inkscape:persp3d" />
    <inkscape:perspective
       sodipodi:type="inkscape:persp3d"
       inkscape:vp_x="0 : 0.5 : 1"
       inkscape:vp_y="0 : 1000 : 0"
       inkscape:vp_z="1 : 0.5 : 1"
       inkscape:persp3d-origin="0.5 : 0.33333333 : 1"
       id="perspective3784" />
    <inkscape:perspective
       sodipodi:type="inkscape:persp3d"
       inkscape:vp_x="0 : 0.5 : 1"
       inkscape:vp_y="0 : 1000 : 0"
       inkscape:vp_z="1 : 0.5 : 1"
       inkscape:persp3d-origin="0.5 : 0.33333333 : 1"
       id="perspective3988" />
    <inkscape:perspective
       sodipodi:type="inkscape:persp3d"
       inkscape:vp_x="0 : 0.5 : 1"
       inkscape:vp_y="0 : 1000 : 0"
       inkscape:vp_z="1 : 0.5 : 1"
       inkscape:persp3d-origin="0.5 : 0.33333333 : 1"
       id="perspective4181" />
    <inkscape:perspective
       sodipodi:type="inkscape:persp3d"
       inkscape:vp_x="0 : 0.5 : 1"
       inkscape:vp_y="0 : 1000 : 0"
       inkscape:vp_z="1 : 0.5 : 1"
       inkscape:persp3d-origin="0.5 : 0.33333333 : 1"
       id="perspective4212" />
    <inkscape:perspective
       sodipodi:type="inkscape:persp3d"
       inkscape:vp_x="0 : 0.5 : 1"
       inkscape:vp_y="0 : 1000 : 0"
       inkscape:vp_z="1 : 0.5 : 1"
       inkscape:persp3d-origin="0.5 : 0.33333333 : 1"
       id="perspective4419" />
    <inkscape:perspective
       sodipodi:type="inkscape:persp3d"
       inkscape:vp_x="0 : 0.5 : 1"
       inkscape:vp_y="0 : 1000 : 0"
       inkscape:vp_z="1 : 0.5 : 1"
       inkscape:persp3d-origin="0.5 : 0.33333333 : 1"
       id="perspective4445" />
    <inkscape:perspective
       sodipodi:type="inkscape:persp3d"
       inkscape:vp_x="0 : 0.5 : 1"
       inkscape:vp_y="0 : 1000 : 0"
       inkscape:vp_z="1 : 0.5 : 1"
       inkscape:persp3d-origin="0.5 : 0.33333333 : 1"
       id="perspective4476" />
    <inkscape:perspective
       sodipodi:type="inkscape:persp3d"
       inkscape:vp_x="0 : 0.5 : 1"
       inkscape:vp_y="0 : 1000 : 0"
       inkscape:vp_z="1 : 0.5 : 1"
       inkscape:persp3d-origin="0.5 : 0.33333333 : 1"
       id="perspective4501" />
    <inkscape:perspective
       sodipodi:type="inkscape:persp3d"
       inkscape:vp_x="0 : 0.5 : 1"
       inkscape:vp_y="0 : 1000 : 0"
       inkscape:vp_z="1 : 0.5 : 1"
       inkscape:persp3d-origin="0.5 : 0.33333333 : 1"
       id="perspective4527" />
    <inkscape:perspective
       sodipodi:type="inkscape:persp3d"
       inkscape:vp_x="0 : 0.5 : 1"
       inkscape:vp_y="0 : 1000 : 0"
       inkscape:vp_z="1 : 0.5 : 1"
       inkscape:persp3d-origin="0.5 : 0.33333333 : 1"
       id="perspective4527-2" />
    <inkscape:perspective
       sodipodi:type="inkscape:persp3d"
       inkscape:vp_x="0 : 0.5 : 1"
       inkscape:vp_y="0 : 1000 : 0"
       inkscape:vp_z="1 : 0.5 : 1"
       inkscape:persp3d-origin="0.5 : 0.33333333 : 1"
       id="perspective4527-21" />
    <inkscape:perspective
       sodipodi:type="inkscape:persp3d"
       inkscape:vp_x="0 : 0.5 : 1"
       inkscape:vp_y="0 : 1000 : 0"
       inkscape:vp_z="1 : 0.5 : 1"
       inkscape:persp3d-origin="0.5 : 0.33333333 : 1"
       id="perspective4671" />
    <inkscape:perspective
       sodipodi:type="inkscape:persp3d"
       inkscape:vp_x="0 : 0.5 : 1"
       inkscape:vp_y="0 : 1000 : 0"
       inkscape:vp_z="1 : 0.5 : 1"
       inkscape:persp3d-origin="0.5 : 0.33333333 : 1"
       id="perspective4708" />
    <inkscape:perspective
       sodipodi:type="inkscape:persp3d"
       inkscape:vp_x="0 : 0.5 : 1"
       inkscape:vp_y="0 : 1000 : 0"
       inkscape:vp_z="1 : 0.5 : 1"
       inkscape:persp3d-origin="0.5 : 0.33333333 : 1"
       id="perspective4777" />
  </defs>
  <metadata
     id="metadata7">
    <rdf:RDF>
      <cc:Work
         rdf:about="">
        <dc:format>image/svg+xml</dc:format>
        <dc:type
           rdf:resource="http://purl.org/dc/dcmitype/StillImage" />
        <dc:title />
      </cc:Work>
    </rdf:RDF>
  </metadata>
  <g
     transform="translate(0,-924.36218)"
     id="layer1"
     inkscape:groupmode="layer"
     inkscape:label="Layer 1">
    <path
       style="fill:#000000;fill-opacity:1;stroke:#56a8ff;stroke-width:0;stroke-miterlimit:4;stroke-opacity:1;stroke-dasharray:none;stroke-dashoffset:0"
       d="m 47.838645,1037.7222 -7.05275,-2.4026 2.26489,-4.4484 c 1.2457,-2.4466 2.27467,-4.571 2.28661,-4.7209 0.0119,-0.1498 -2.56762,-2.132 -5.73238,-4.4049 l -5.7541,-4.1325 -3.69191,3.6747 -3.69191,3.6748 -4.32282,-5.9377 c -2.37756,-3.2658 -4.32282,-6.0905 -4.32282,-6.2771 0,-0.1865 1.92408,-1.2849 4.27572,-2.4406 2.35165,-1.1558 4.36765,-2.2492 4.48,-2.4299 0.11234,-0.1806 -0.779,-3.2786 -1.98078,-6.8844 -1.65691,-4.97135 -2.35575,-6.55505 -2.89128,-6.55225 -0.38843,0 -2.75568,0.3547 -5.26054,0.7835 l -4.55431,0.7798 0,-7.7819 0,-7.782 0.95323,0.215 c 0.92578,0.2087 9.012,1.4958 9.39752,1.4958 0.10566,0 1.1735,-2.9926 2.37296,-6.6503 2.52856,-7.7105 2.88399,-6.6376 -3.23281,-9.7581 l -3.85427,-1.9663 4.45846,-6.0871 4.45846,-6.0871 3.69702,3.6799 3.69702,3.6799 5.65472,-4.1149 c 3.1101,-2.2632 5.71615,-4.2839 5.79124,-4.4903 0.0751,-0.2064 -0.93486,-2.3728 -2.24433,-4.814 l -2.38087,-4.4387 6.4809,-2.0892 c 3.5645,-1.149 6.88667,-2.2137 7.38262,-2.3661 0.85903,-0.2639 0.9374,-0.036 1.65579,4.8191 l 0.75407,5.0961 7.12702,0 c 7.04341,0 7.12958,-0.011 7.34677,-0.9532 0.12088,-0.5243 0.50088,-2.7436 0.84446,-4.9318 0.34357,-2.1882 0.68234,-4.0361 0.75281,-4.1066 0.1845,-0.1845 13.594469,4.1078 14.01119,4.4846 0.191743,0.1735 -0.62874,2.263 -1.82329,4.6435 -1.19456,2.3804 -2.11402,4.5003 -2.04326,4.7108 0.0708,0.2105 2.607062,2.1885 5.636205,4.3955 l 5.507534,4.0126 3.700803,-3.6767 c 2.228813,-2.2142 3.843433,-3.5141 4.059393,-3.268 0.5029,0.5731 7.92294,10.8861 8.28996,11.522 0.20578,0.3566 -1.11498,1.2264 -4.16746,2.7445 -2.80821,1.3966 -4.46053,2.462 -4.44668,2.8672 0.0121,0.3547 0.93006,3.4092 2.03987,6.7878 l 2.01784,6.143 1.45529,-0.085 c 0.80041,-0.047 3.12345,-0.354 5.16229,-0.6827 l 3.707,-0.5977 0,7.5671 c 0,6.3516 -0.0994,7.5671 -0.61852,7.5671 -0.34019,0 -2.55068,-0.306 -4.91222,-0.68 -2.36153,-0.374 -4.44248,-0.517 -4.62434,-0.3177 -0.39038,0.4277 -4.24925,11.99265 -4.24925,12.73475 0,0.28 1.68162,1.3777 3.73692,2.4392 5.87937,3.0366 5.74609,2.1933 1.30813,8.2776 -2.12449,2.9127 -4.12925,5.6725 -4.45504,6.1331 -0.56352,0.7966 -0.7739,0.6565 -4.325861,-2.879 l -3.733535,-3.7162 -5.585741,4.0699 c -3.072158,2.2384 -5.585748,4.2524 -5.585748,4.4753 0,0.223 0.965,2.3284 2.14445,4.6787 1.179448,2.3503 2.051527,4.3663 1.937953,4.4799 -0.570444,0.5704 -14.059383,4.6576 -14.189243,4.2993 -0.083,-0.229 -0.47573,-2.4527 -0.87272,-4.9416 l -0.72179,-4.5252 -7.20905,-0.1156 -7.20908,-0.1156 -0.78121,5.0936 c -0.42968,2.8014 -0.89174,5.0785 -1.02684,5.0601 -0.13509,-0.018 -3.41936,-1.1146 -7.29836,-2.436 z m 22.18641,-28.0001 c 4.03848,-1.1549 6.87707,-2.8229 9.84131,-5.783 8.72789,-8.71565 8.779834,-22.48855 0.11784,-31.24575 -4.44124,-4.4901 -9.53125,-6.6416 -15.71243,-6.6416 -12.56338,0 -22.30191,9.6404 -22.30191,22.0771 0,6.3951 2.04335,11.3475 6.55672,15.89135 5.59303,5.6307 13.97436,7.8536 21.49847,5.7019 l 0,0 z"
       id="path3094" />
  </g>
</svg>
